<?xml version="1.0" encoding="UTF-8" standalone="no"?>
<svg
   xmlns:dc="http://purl.org/dc/elements/1.1/"
   xmlns:cc="http://creativecommons.org/ns#"
   xmlns:rdf="http://www.w3.org/1999/02/22-rdf-syntax-ns#"
   xmlns:svg="http://www.w3.org/2000/svg"
   xmlns="http://www.w3.org/2000/svg"
   xmlns:sodipodi="http://sodipodi.sourceforge.net/DTD/sodipodi-0.dtd"
   xmlns:inkscape="http://www.inkscape.org/namespaces/inkscape"
   version="1.1"
   id="svg2"
   xml:space="preserve"
   width="666.66669"
   height="666.66669"
   viewBox="0 0 666.66669 666.66669"
   sodipodi:docname="2473060.eps"><metadata
     id="metadata8"><rdf:RDF><cc:Work
         rdf:about=""><dc:format>image/svg+xml</dc:format><dc:type
           rdf:resource="http://purl.org/dc/dcmitype/StillImage" /></cc:Work></rdf:RDF></metadata><defs
     id="defs6"><clipPath
       clipPathUnits="userSpaceOnUse"
       id="clipPath20"><path
         d="M 5000,0 H 0 V 5000 H 5000 V 0 M 2398.5,984.898 c -513.68,0 -930.08,-67.578 -930.08,-150.949 0,-83.379 416.4,-150.969 930.08,-150.969 513.67,0 930.07,67.59 930.07,150.969 0,83.371 -416.4,150.949 -930.07,150.949 m 1341.21,1507.552 -43.75,-58.1 81.99,-61.75 c 7.27,-5.48 15.8,-8.13 24.26,-8.13 12.24,0 24.33,5.55 32.27,16.09 L 4056,2674.67 c 13.4,17.81 9.84,43.11 -7.96,56.53 l -82,61.75 -45.87,-60.89 45.87,60.89 -232.51,175.12 c -40.45,30.46 -87.86,45.18 -134.88,45.18 -68.09,0 -135.35,-30.86 -179.47,-89.44 v 0 c -74.58,-99.03 -54.77,-239.76 44.26,-314.34 l 232.52,-175.12 43.75,58.1 m -2408.24,515.61 -78.95,-48.25 74.65,-122.14 c -78.95,-73.37 -98.1,-194.5 -39.72,-290.02 43.62,-71.38 119.7,-110.76 197.66,-110.76 41.12,0 82.77,10.97 120.43,33.98 109.04,66.64 143.41,209.06 76.78,318.09 -43.62,71.38 -119.7,110.76 -197.65,110.76 -26.36,0 -52.95,-4.51 -78.55,-13.81 l -74.65,122.15 m 2653.4,251.42 c -3.5,-9.59 -1.25,-20.77 6.61,-28.26 l 191.39,-182.28 c 5.12,-4.89 11.7,-7.31 18.26,-7.31 6.99,0 13.98,2.75 19.18,8.22 l 145.34,152.61 c 4.43,4.64 6.84,10.48 7.25,16.42 3.51,9.6 1.27,20.8 -6.61,28.3 l -191.39,182.27 c -5.12,4.89 -11.69,7.31 -18.25,7.31 -7,0 -13.98,-2.75 -19.19,-8.22 l -145.34,-152.61 c -4.43,-4.65 -6.84,-10.5 -7.25,-16.45 M 1418.94,3157.89 c 3.57,-1.76 7.55,-2.73 11.66,-2.73 2.05,0 4.12,0.24 6.2,0.74 l 204.94,49.1 c 14.23,3.41 23,17.7 19.59,31.92 l -61.58,257.03 c -2.53,10.58 -11.08,18.14 -21.15,19.92 -3.57,1.75 -7.55,2.71 -11.65,2.71 -2.04,0 -4.12,-0.23 -6.19,-0.73 l -204.95,-49.1 c -14.23,-3.41 -22.99,-17.7 -19.59,-31.93 l 61.58,-257.02 c 2.54,-10.57 11.08,-18.13 21.14,-19.91 m -317.67,880.08 -56.75,-85.54 c -12.33,-18.57 -7.26,-43.62 11.31,-55.95 l 306.81,-203.57 c 6.87,-4.56 14.62,-6.74 22.28,-6.74 13.08,0 25.9,6.34 33.67,18.05 l 56.76,85.54 -63.53,42.15 63.53,-42.15 160.93,242.55 c 68.54,103.3 40.37,242.6 -62.93,311.14 -38.17,25.33 -81.28,37.45 -123.9,37.45 -72.7,0 -144.03,-35.26 -187.24,-100.38 l -160.94,-242.55 60.61,-40.22 -60.61,40.22 m 2559.29,423.92 -84.25,-38.24 59.17,-130.35 c -87.33,-63.17 -121.12,-181.05 -74.85,-282.99 38.74,-85.34 122.84,-135.8 210.83,-135.8 31.99,0 64.48,6.67 95.5,20.75 116.37,52.82 167.87,189.97 115.06,306.33 -38.74,85.34 -122.84,135.79 -210.83,135.79 -17.11,0 -34.37,-1.9 -51.46,-5.83 l -59.17,130.34"
         id="path18" /></clipPath><radialGradient
       fx="0"
       fy="0"
       cx="0"
       cy="0"
       r="1"
       gradientUnits="userSpaceOnUse"
       gradientTransform="matrix(2691.77,0,0,-2691.77,2500,2500)"
       spreadMethod="pad"
       id="radialGradient26"><stop
         style="stop-opacity:1;stop-color:#409fcf"
         offset="0"
         id="stop22" /><stop
         style="stop-opacity:1;stop-color:#377dc4"
         offset="1"
         id="stop24" /></radialGradient><clipPath
       clipPathUnits="userSpaceOnUse"
       id="clipPath36"><path
         d="m 2398.5,682.98 c -513.68,0 -930.08,67.59 -930.08,150.969 0,83.371 416.4,150.949 930.08,150.949 513.67,0 930.07,-67.578 930.07,-150.949 0,-83.379 -416.4,-150.969 -930.07,-150.969"
         id="path34" /></clipPath><radialGradient
       fx="0"
       fy="0"
       cx="0"
       cy="0"
       r="1"
       gradientUnits="userSpaceOnUse"
       gradientTransform="matrix(2691.77,0,0,-2691.77,2500,2500)"
       spreadMethod="pad"
       id="radialGradient42"><stop
         style="stop-opacity:1;stop-color:#3071a2"
         offset="0"
         id="stop38" /><stop
         style="stop-opacity:1;stop-color:#29609c"
         offset="1"
         id="stop40" /></radialGradient><clipPath
       clipPathUnits="userSpaceOnUse"
       id="clipPath356"><path
         d="m 1486.19,2448.49 c -73.21,0 -144.67,36.99 -185.64,104.03 -49.24,80.56 -39.73,180.49 16.4,249.95 -32.7,-57.58 -38.2,-128.62 -11.37,-191.99 -6.64,-1.3 -13.22,-2.92 -19.69,-4.98 5,-15.81 11.74,-31.32 20.77,-46.11 39.38,-64.43 108.06,-99.98 178.42,-99.98 37.13,0 74.72,9.9 108.72,30.68 11.12,6.79 21.38,14.46 30.74,22.86 19.55,12.74 36.37,28.14 50.33,45.41 -17.59,-30.97 -43.02,-58.06 -75.56,-77.95 -35.38,-21.62 -74.49,-31.92 -113.12,-31.92"
         id="path354" /></clipPath></defs><sodipodi:namedview
     pagecolor="#ffffff"
     bordercolor="#666666"
     borderopacity="1"
     objecttolerance="10"
     gridtolerance="10"
     guidetolerance="10"
     inkscape:pageopacity="0"
     inkscape:pageshadow="2"
     inkscape:window-width="640"
     inkscape:window-height="480"
     id="namedview4" /><g
     id="g10"
     inkscape:groupmode="layer"
     inkscape:label="ink_ext_XXXXXX"
     transform="matrix(1.3333333,0,0,-1.3333333,0,666.66667)"><g
       id="g12"
       transform="scale(0.1)"><g
         id="g14"><g
           id="g16"
           clip-path="url(#clipPath20)"><path
             d="M 5000,0 H 0 V 5000 H 5000 V 0 M 2398.5,984.898 c -513.68,0 -930.08,-67.578 -930.08,-150.949 0,-83.379 416.4,-150.969 930.08,-150.969 513.67,0 930.07,67.59 930.07,150.969 0,83.371 -416.4,150.949 -930.07,150.949 m 1341.21,1507.552 -43.75,-58.1 81.99,-61.75 c 7.27,-5.48 15.8,-8.13 24.26,-8.13 12.24,0 24.33,5.55 32.27,16.09 L 4056,2674.67 c 13.4,17.81 9.84,43.11 -7.96,56.53 l -82,61.75 -45.87,-60.89 45.87,60.89 -232.51,175.12 c -40.45,30.46 -87.86,45.18 -134.88,45.18 -68.09,0 -135.35,-30.86 -179.47,-89.44 v 0 c -74.58,-99.03 -54.77,-239.76 44.26,-314.34 l 232.52,-175.12 43.75,58.1 m -2408.24,515.61 -78.95,-48.25 74.65,-122.14 c -78.95,-73.37 -98.1,-194.5 -39.72,-290.02 43.62,-71.38 119.7,-110.76 197.66,-110.76 41.12,0 82.77,10.97 120.43,33.98 109.04,66.64 143.41,209.06 76.78,318.09 -43.62,71.38 -119.7,110.76 -197.65,110.76 -26.36,0 -52.95,-4.51 -78.55,-13.81 l -74.65,122.15 m 2653.4,251.42 c -3.5,-9.59 -1.25,-20.77 6.61,-28.26 l 191.39,-182.28 c 5.12,-4.89 11.7,-7.31 18.26,-7.31 6.99,0 13.98,2.75 19.18,8.22 l 145.34,152.61 c 4.43,4.64 6.84,10.48 7.25,16.42 3.51,9.6 1.27,20.8 -6.61,28.3 l -191.39,182.27 c -5.12,4.89 -11.69,7.31 -18.25,7.31 -7,0 -13.98,-2.75 -19.19,-8.22 l -145.34,-152.61 c -4.43,-4.65 -6.84,-10.5 -7.25,-16.45 M 1418.94,3157.89 c 3.57,-1.76 7.55,-2.73 11.66,-2.73 2.05,0 4.12,0.24 6.2,0.74 l 204.94,49.1 c 14.23,3.41 23,17.7 19.59,31.92 l -61.58,257.03 c -2.53,10.58 -11.08,18.14 -21.15,19.92 -3.57,1.75 -7.55,2.71 -11.65,2.71 -2.04,0 -4.12,-0.23 -6.19,-0.73 l -204.95,-49.1 c -14.23,-3.41 -22.99,-17.7 -19.59,-31.93 l 61.58,-257.02 c 2.54,-10.57 11.08,-18.13 21.14,-19.91 m -317.67,880.08 -56.75,-85.54 c -12.33,-18.57 -7.26,-43.62 11.31,-55.95 l 306.81,-203.57 c 6.87,-4.56 14.62,-6.74 22.28,-6.74 13.08,0 25.9,6.34 33.67,18.05 l 56.76,85.54 -63.53,42.15 63.53,-42.15 160.93,242.55 c 68.54,103.3 40.37,242.6 -62.93,311.14 -38.17,25.33 -81.28,37.45 -123.9,37.45 -72.7,0 -144.03,-35.26 -187.24,-100.38 l -160.94,-242.55 60.61,-40.22 -60.61,40.22 m 2559.29,423.92 -84.25,-38.24 59.17,-130.35 c -87.33,-63.17 -121.12,-181.05 -74.85,-282.99 38.74,-85.34 122.84,-135.8 210.83,-135.8 31.99,0 64.48,6.67 95.5,20.75 116.37,52.82 167.87,189.97 115.06,306.33 -38.74,85.34 -122.84,135.79 -210.83,135.79 -17.11,0 -34.37,-1.9 -51.46,-5.83 l -59.17,130.34"
             style="fill:url(#radialGradient26);fill-opacity:1;fill-rule:nonzero;stroke:none"
             id="path28" /></g></g><g
         id="g30"><g
           id="g32"
           clip-path="url(#clipPath36)"><path
             d="m 2398.5,682.98 c -513.68,0 -930.08,67.59 -930.08,150.969 0,83.371 416.4,150.949 930.08,150.949 513.67,0 930.07,-67.578 930.07,-150.949 0,-83.379 -416.4,-150.969 -930.07,-150.969"
             style="fill:url(#radialGradient42);fill-opacity:1;fill-rule:nonzero;stroke:none"
             id="path44" /></g></g><path
         d="m 1542.19,2066.53 -15.88,-18.42 8.85,-991.82 764.01,-221.642 c 0,0 31.66,-38.218 98.21,-44.066 66.56,-5.863 91.45,44.359 91.45,44.359 l 784.89,221.369 4.05,985.99 -24.64,29.47 -863,-208.17 -847.94,202.93"
         style="fill:#73132e;fill-opacity:1;fill-rule:nonzero;stroke:none"
         id="path46" /><path
         d="m 1592.15,2064.31 -49.96,2.22 10.3,-995.43 750.72,-217.991 c 0,0 31.43,-41.777 98.21,-44.078 54,-1.859 91.45,44.367 91.45,44.367 l 759.72,213.132 0.54,1005.24 -858.96,-189.71 -802.02,182.25"
         style="fill:#a71b45;fill-opacity:1;fill-rule:nonzero;stroke:none"
         id="path48" /><path
         d="m 1622.6,2157.34 -65.47,-114.27 11.16,-966.34 769.4,-208.5 c 0,0 53.06,36.981 126.81,-1.851 86.7,27.582 755.44,210.311 755.44,210.311 l -3.9,961.66 -55.42,115.53 -10.52,-976.65 c 0,0 -523.85,62.31 -756.46,-253.859 -73.73,108.299 -344.3,318.759 -737.98,260.439 -2.71,91.03 -33.06,973.53 -33.06,973.53"
         style="fill:#73132e;fill-opacity:1;fill-rule:nonzero;stroke:none"
         id="path50" /><path
         d="m 1627.28,2169.81 -65.47,-114.27 11.15,-966.34 769.41,-208.501 c 0,0 53.05,36.981 126.8,-1.847 86.7,27.589 755.45,210.308 755.45,210.308 l -3.91,961.66 -55.42,115.53 -10.51,-976.65 c 0,0 -523.85,62.31 -756.46,-253.86 -73.74,108.3 -344.31,318.77 -737.98,260.44 -2.71,91.03 -33.06,973.53 -33.06,973.53"
         style="fill:#d6d8d5;fill-opacity:1;fill-rule:nonzero;stroke:none"
         id="path52" /><path
         d="m 1572.96,1089.2 63.25,82.89 c 0,0 132.53,42 316.44,29.1 183.9,-12.89 409.88,-160.83 445.85,-261.268 0,-18.32 0,-43.531 0,-43.531 0,0 -30.82,0.418 -56.13,-15.692 -32.78,9.012 -769.41,208.501 -769.41,208.501"
         style="fill:#abadac;fill-opacity:1;fill-rule:nonzero;stroke:none"
         id="path54" /><path
         d="m 3224.62,1089.16 -89.44,120.99 c 0,0 -276.12,2.26 -450.07,-66.73 -259.68,-103 -286.79,-207.58 -286.79,-207.58 v -39.449 c 0,0 38.77,1.828 70.85,-17.539 108.04,32.437 755.45,210.308 755.45,210.308"
         style="fill:#abadac;fill-opacity:1;fill-rule:nonzero;stroke:none"
         id="path56" /><path
         d="m 2391.29,1912.89 c 40.39,51.24 330.96,324.19 774,253.46 -2.04,-190.12 -10.51,-976.65 -10.51,-976.65 0,0 -518.44,15.31 -756.46,-253.86 -2.82,92.84 -7.03,977.05 -7.03,977.05"
         style="fill:#f4f3f2;fill-opacity:1;fill-rule:nonzero;stroke:none"
         id="path58" /><path
         d="m 1627.28,2169.81 8.93,-997.72 c 0,0 517.51,67.58 762.11,-236.25 3.55,153.41 -7.03,977.05 -7.03,977.05 0,0 -168.72,295.99 -764.01,256.92"
         style="fill:#e2e3e0;fill-opacity:1;fill-rule:nonzero;stroke:none"
         id="path60" /><path
         d="m 2447.15,1860.7 v -297.63 c 0,0 332.36,213.31 649.84,181.89 0,140.55 0,353.86 0,353.86 0,0 -423.31,0 -649.84,-238.12"
         style="fill:#d6d8d5;fill-opacity:1;fill-rule:nonzero;stroke:none"
         id="path62" /><path
         d="m 3097.34,1636.26 c 0,0 -113.95,30.99 -319.13,-16.05 -190.98,-43.79 -323.78,-155.48 -323.78,-155.48 v 25.38 c 0,0 88.77,98.85 321.31,154.81 232.54,55.98 321.6,16.71 321.6,16.71 v -25.37"
         style="fill:#d6d8d5;fill-opacity:1;fill-rule:nonzero;stroke:none"
         id="path64" /><path
         d="m 3097.34,1542.61 c 0,0 -113.95,30.98 -319.13,-16.06 -190.98,-43.79 -323.78,-155.48 -323.78,-155.48 v 25.39 c 0,0 88.77,98.84 321.31,154.81 232.54,55.98 321.6,16.71 321.6,16.71 v -25.37"
         style="fill:#d6d8d5;fill-opacity:1;fill-rule:nonzero;stroke:none"
         id="path66" /><path
         d="m 3097.34,1448.96 c 0,0 -113.95,30.98 -319.13,-16.06 -190.98,-43.79 -323.78,-155.48 -323.78,-155.48 v 25.38 c 0,0 88.77,98.85 321.31,154.82 232.54,55.97 321.6,16.71 321.6,16.71 v -25.37"
         style="fill:#d6d8d5;fill-opacity:1;fill-rule:nonzero;stroke:none"
         id="path68" /><path
         d="m 3097.34,1355.3 c 0,0 -113.95,30.99 -319.13,-16.05 -190.98,-43.78 -323.78,-155.48 -323.78,-155.48 v 25.38 c 0,0 88.77,98.85 321.31,154.81 232.54,55.98 321.6,16.71 321.6,16.71 v -25.37"
         style="fill:#d6d8d5;fill-opacity:1;fill-rule:nonzero;stroke:none"
         id="path70" /><path
         d="m 3097.34,1261.65 c 0,0 -113.95,30.99 -319.13,-16.05 -190.98,-43.78 -323.78,-155.48 -323.78,-155.48 v 25.38 c 0,0 88.77,98.85 321.31,154.81 232.54,55.98 321.6,16.71 321.6,16.71 v -25.37"
         style="fill:#d6d8d5;fill-opacity:1;fill-rule:nonzero;stroke:none"
         id="path72" /><path
         d="m 1704.67,2054.83 c 0,0 113.96,30.99 319.13,-16.04 190.99,-43.79 323.78,-187.52 323.78,-187.52 v 25.38 c 0,0 -88.23,133.15 -321.31,186.86 -207.34,47.76 -321.6,16.7 -321.6,16.7 v -25.38"
         style="fill:#c4c5c3;fill-opacity:1;fill-rule:nonzero;stroke:none"
         id="path74" /><path
         d="m 1704.67,1948.49 c 0,0 113.96,30.98 319.13,-16.06 190.99,-43.78 323.78,-187.51 323.78,-187.51 v 25.38 c 0,0 -88.23,133.16 -321.31,186.86 -207.34,47.76 -321.6,16.71 -321.6,16.71 v -25.38"
         style="fill:#c4c5c3;fill-opacity:1;fill-rule:nonzero;stroke:none"
         id="path76" /><path
         d="m 1704.67,1842.14 c 0,0 113.96,30.98 319.13,-16.06 190.99,-43.79 323.78,-187.51 323.78,-187.51 v 25.39 c 0,0 -88.23,133.15 -321.31,186.84 -207.34,47.77 -321.6,16.71 -321.6,16.71 v -25.37"
         style="fill:#c4c5c3;fill-opacity:1;fill-rule:nonzero;stroke:none"
         id="path78" /><path
         d="m 1704.67,1735.79 c 0,0 113.96,30.99 319.13,-16.05 190.99,-43.79 323.78,-187.51 323.78,-187.51 v 25.37 c 0,0 -88.23,133.16 -321.31,186.85 -207.34,47.78 -321.6,16.71 -321.6,16.71 v -25.37"
         style="fill:#c4c5c3;fill-opacity:1;fill-rule:nonzero;stroke:none"
         id="path80" /><path
         d="m 1704.67,1629.43 c 0,0 113.96,31 319.13,-16.04 190.99,-43.79 323.78,-187.51 323.78,-187.51 v 25.37 c 0,0 -88.23,133.16 -321.31,186.86 -207.34,47.76 -321.6,16.7 -321.6,16.7 v -25.38"
         style="fill:#c4c5c3;fill-opacity:1;fill-rule:nonzero;stroke:none"
         id="path82" /><path
         d="m 1704.67,1523.09 c 0,0 113.96,30.98 319.13,-16.05 190.99,-43.79 323.78,-187.52 323.78,-187.52 v 25.38 c 0,0 -88.23,133.17 -321.31,186.86 -207.34,47.76 -321.6,16.71 -321.6,16.71 v -25.38"
         style="fill:#c4c5c3;fill-opacity:1;fill-rule:nonzero;stroke:none"
         id="path84" /><path
         d="m 1704.67,1416.74 c 0,0 113.96,30.98 319.13,-16.05 190.99,-43.79 323.78,-187.52 323.78,-187.52 v 25.38 c 0,0 -88.23,133.17 -321.31,186.86 -207.34,47.76 -321.6,16.71 -321.6,16.71 v -25.38"
         style="fill:#c4c5c3;fill-opacity:1;fill-rule:nonzero;stroke:none"
         id="path86" /><path
         d="m 1704.67,1310.39 c 0,0 113.96,30.99 319.13,-16.05 190.99,-43.78 323.78,-187.51 323.78,-187.51 v 25.38 c 0,0 -88.23,133.15 -321.31,186.85 -207.34,47.77 -321.6,16.71 -321.6,16.71 v -25.38"
         style="fill:#c4c5c3;fill-opacity:1;fill-rule:nonzero;stroke:none"
         id="path88" /><path
         d="m 2539.5,1795 c 0,-66.97 -54.29,-121.26 -121.26,-121.26 -66.97,0 -121.25,54.29 -121.25,121.26 0,66.96 54.28,121.25 121.25,121.25 66.97,0 121.26,-54.29 121.26,-121.25"
         style="fill:#5e6363;fill-opacity:1;fill-rule:nonzero;stroke:none"
         id="path90" /><path
         d="m 3012.83,3025.39 c 0,337.99 -263.34,612 -588.19,612 -324.84,0 -588.18,-274.01 -588.18,-612 0,-106.67 26.28,-206.94 72.4,-294.27 87.46,-158.64 290.79,-424.79 290.79,-663.63 0,-195.18 443.85,-149.31 443.85,0 0,143.35 16.76,250.55 254,593.97 77.92,100.46 115.33,227.6 115.33,363.93"
         style="fill:#fbd217;fill-opacity:1;fill-rule:nonzero;stroke:none"
         id="path92" /><path
         d="m 1884.69,3268.24 c -30.97,-74.47 -48.23,-156.55 -48.23,-242.85 0,-106.67 26.28,-206.94 72.4,-294.27 87.46,-158.64 290.79,-424.79 290.79,-663.63 0,-195.18 443.85,-149.31 443.85,0 0,143.35 16.76,250.55 254,593.97 30.18,38.9 54.2,81.85 72.4,127.74 -426.94,-380.24 -1063.85,-66.89 -1085.21,479.04"
         style="fill:#f7a01d;fill-opacity:1;fill-rule:nonzero;stroke:none"
         id="path94" /><path
         d="m 2293.59,2067.22 c 0,0.02 -1.39,7.41 -3.84,20.53 -8.6,45.89 -30.23,161.56 -50.83,273.26 -10.29,55.85 -20.33,110.7 -28.35,155.33 -8.02,44.6 -14.04,79.11 -16.22,93.77 -4.4,29.47 -7.41,52.77 -11.29,69.7 -2,8.51 -4.07,15.44 -7.52,21.47 -1.75,3 -3.93,5.89 -7.13,8.25 -3.14,2.37 -7.48,3.9 -11.65,3.85 -5.44,-0.04 -9.95,-2.05 -13.93,-4.59 -5.52,-3.58 -9.29,-8.77 -11.78,-14.5 -2.49,-5.75 -3.75,-12.19 -3.75,-18.99 -0.04,-15.12 6.49,-32.42 21.88,-45.54 15.39,-13.13 38.89,-21.62 71.7,-21.6 2.97,0 6.02,0.07 9.15,0.21 30.8,1.33 54.78,12.93 70.64,29.35 15.87,16.41 23.74,37.2 23.76,56.88 -0.01,14.44 -4.29,28.54 -13.45,39.52 -9.1,11.01 -23.28,18.23 -40.06,18.88 l -2.52,0.06 c -17.16,0.08 -31.94,-8.18 -41.44,-20.25 -9.59,-12.08 -14.59,-27.74 -14.61,-44.14 -0.03,-21.48 8.82,-44.62 28.49,-62.07 19.66,-17.47 49.54,-28.77 90.19,-28.74 3.74,0 7.58,0.1 11.5,0.29 44.49,2.2 77.34,12.63 99.81,27.79 11.22,7.58 19.82,16.4 25.67,26 5.85,9.58 8.9,19.99 8.89,30.26 0.05,15.13 -6.68,29.59 -18.35,40.23 -11.68,10.72 -28.09,17.87 -48,20.27 -3.39,0.41 -6.7,0.62 -9.92,0.62 -17.87,0.07 -33.17,-6.51 -43.34,-17.49 -10.22,-10.93 -15.22,-25.59 -15.21,-40.76 0.02,-22.5 10.78,-46.62 32.39,-64.98 21.62,-18.39 53.94,-30.76 96.76,-30.73 l 2.3,0.01 h 0.01 c 47.7,0.49 81.9,12.06 104.6,29.1 22.67,17 33.52,39.56 33.51,60.22 0,11.52 -3.38,22.51 -10.07,31.24 -6.64,8.74 -16.78,14.98 -28.61,16.67 -2.09,0.31 -4.18,0.46 -6.24,0.46 -7.73,0.01 -15.06,-2.19 -21.28,-5.86 -9.38,-5.54 -16.42,-14.1 -21.22,-23.93 -4.79,-9.85 -7.39,-21.11 -7.4,-32.73 -0.02,-16.79 5.61,-34.65 18.93,-48.66 13.29,-14.04 33.83,-23.48 61.12,-25.03 4.08,-0.24 8.04,-0.36 11.88,-0.36 35.53,-0.04 61.71,10.16 78.8,26.15 17.1,15.95 24.45,36.98 24.42,56.38 -0.01,13.13 -3.25,25.69 -9.36,36.21 -1.9,3.21 -3.8,5.95 -6.45,8.43 -1.34,1.24 -2.89,2.41 -4.86,3.36 -1.94,0.95 -4.37,1.62 -6.93,1.62 -3.73,0.03 -7.23,-1.48 -9.54,-3.26 -4.35,-3.44 -6.15,-7.13 -7.96,-11.09 -2.96,-6.94 -5.05,-15.56 -7.15,-26.28 -6.16,-31.93 -11.32,-82.1 -19.7,-134.59 -8.08,-50.74 -23.77,-168.96 -37.47,-274.73 -13.7,-105.74 -25.38,-198.86 -25.38,-198.87 l 23.24,-2.92 c 0,0.02 0.73,5.82 2.04,16.2 9.15,72.57 46.73,368.95 60.71,456.64 6.89,43.23 11.63,84.69 16.32,114.91 2.33,15.07 4.7,27.4 7.05,35.13 1.13,3.82 2.35,6.5 2.87,7.25 l 0.13,0.18 v 0 l -3.64,3.1 2.33,-4.11 1.31,1.01 -3.64,3.1 2.33,-4.11 -3.85,6.78 v -7.77 c 1.49,-0.02 2.99,0.48 3.85,0.99 l -3.85,6.78 v -7.77 7.38 l -3.21,-6.68 c 0.67,-0.33 1.85,-0.71 3.21,-0.7 v 7.38 l -3.21,-6.68 1.87,3.9 -2.75,-3.37 0.88,-0.53 1.87,3.9 -2.75,-3.37 0.46,0.56 -0.5,-0.52 0.04,-0.04 0.46,0.56 -0.5,-0.52 c 0.08,-0.05 1.01,-1.11 2.13,-3.06 3.8,-6.47 6.19,-15.2 6.17,-24.4 -0.03,-13.7 -5.03,-28.08 -16.98,-39.26 -11.98,-11.15 -31.55,-19.79 -62.81,-19.84 -3.37,0 -6.87,0.1 -10.5,0.32 -22.86,1.4 -36.83,8.69 -45.52,17.78 -8.66,9.11 -12.46,20.77 -12.48,32.52 -0.04,10.75 3.39,21.29 8.55,28.41 2.57,3.58 5.5,6.29 8.5,8.05 3.01,1.75 6.03,2.62 9.42,2.63 0.91,0 1.85,-0.06 2.84,-0.21 5.98,-0.93 10.18,-3.6 13.42,-7.75 3.19,-4.15 5.23,-10.01 5.24,-16.98 -0.01,-12.43 -6.53,-28.2 -24.16,-41.49 -17.61,-13.26 -46.67,-23.95 -90.77,-24.4 h 0.01 l -2.08,-0.01 c -38.41,0.02 -64.8,10.91 -81.59,25.15 -16.81,14.27 -24.15,32.15 -24.13,47.13 0.01,10.16 3.27,18.76 8.89,24.76 5.66,5.96 13.77,9.98 26.23,10.06 2.24,0 4.61,-0.14 7.12,-0.44 15.97,-1.93 27.58,-7.49 34.95,-14.27 7.37,-6.85 10.73,-14.66 10.77,-22.98 0,-5.68 -1.63,-11.76 -5.46,-18.08 -5.74,-9.44 -16.65,-19.35 -34.15,-27.27 -17.47,-7.92 -41.43,-13.79 -72.47,-15.3 -3.56,-0.18 -7.01,-0.26 -10.36,-0.26 -36.48,0.03 -60.09,9.93 -74.63,22.83 -14.53,12.93 -20.59,29.33 -20.62,44.55 -0.02,11.59 3.66,22.27 9.49,29.53 5.93,7.27 13.31,11.35 23.13,11.43 l 1.47,-0.03 c 11.06,-0.59 18.04,-4.56 23.14,-10.52 5.04,-5.98 7.99,-14.61 7.99,-24.48 0.02,-13.4 -5.52,-28.61 -17.15,-40.57 -11.65,-11.94 -29.27,-21.06 -54.87,-22.26 -2.79,-0.12 -5.49,-0.18 -8.1,-0.18 -28.94,0.02 -46.38,7.36 -56.49,15.99 -10.1,8.65 -13.63,19.07 -13.67,27.72 0,3.84 0.76,7.25 1.82,9.67 1.05,2.45 2.36,3.76 2.96,4.12 l 1.65,0.88 0.1,0.03 -0.49,1.77 v -1.81 l 0.49,0.04 -0.49,1.77 v -1.81 3.69 l -2.21,-3.01 2.21,-0.68 v 3.69 l -2.21,-3.01 0.76,1.03 -0.87,-0.94 0.11,-0.09 0.76,1.03 -0.87,-0.94 0.27,-0.32 c 0.7,-0.86 2.19,-3.79 3.53,-8.29 2.08,-6.77 4.08,-16.92 6.11,-29.65 2.05,-12.75 4.2,-28.14 6.83,-45.81 2.61,-17.54 10.09,-59.99 19.89,-114.21 29.38,-162.54 79.5,-429.54 79.5,-429.55 l 23.02,4.32"
         style="fill:#f7f682;fill-opacity:1;fill-rule:nonzero;stroke:none"
         id="path96" /><path
         d="m 2663.28,2105.14 h -488.11 c -27.18,0 -49.21,-22.03 -49.21,-49.21 0,-27.18 22.03,-49.21 49.21,-49.21 h 488.11 c 27.18,0 49.21,22.03 49.21,49.21 0,27.18 -22.03,49.21 -49.21,49.21"
         style="fill:#d6d8d5;fill-opacity:1;fill-rule:nonzero;stroke:none"
         id="path98" /><path
         d="m 2637.03,2105.14 h -461.86 c -27.18,0 -49.21,-22.03 -49.21,-49.21 0,-27.18 22.03,-49.21 49.21,-49.21 h 461.86 c 27.18,0 49.21,22.03 49.21,49.21 0,27.18 -22.03,49.21 -49.21,49.21"
         style="fill:#5e6363;fill-opacity:1;fill-rule:nonzero;stroke:none"
         id="path100" /><path
         d="m 2637.03,2105.14 h -426.72 c -27.18,0 -49.21,-22.03 -49.21,-49.21 0,-27.18 22.03,-49.21 49.21,-49.21 h 426.72 c 27.18,0 49.21,22.03 49.21,49.21 0,27.18 -22.03,49.21 -49.21,49.21"
         style="fill:#7e8181;fill-opacity:1;fill-rule:nonzero;stroke:none"
         id="path102" /><path
         d="m 2620.3,2098.75 h -322.23 c -17.94,0 -32.49,-11.9 -32.49,-26.59 0,-14.68 14.55,-26.58 32.49,-26.58 h 322.23 c 17.94,0 32.49,11.9 32.49,26.58 0,14.69 -14.55,26.59 -32.49,26.59"
         style="fill:#a0a3a2;fill-opacity:1;fill-rule:nonzero;stroke:none"
         id="path104" /><path
         d="m 2663.28,2010.46 h -488.11 c -27.18,0 -49.21,-22.03 -49.21,-49.21 0,-27.18 22.03,-49.21 49.21,-49.21 h 488.11 c 27.18,0 49.21,22.03 49.21,49.21 0,27.18 -22.03,49.21 -49.21,49.21"
         style="fill:#d6d8d5;fill-opacity:1;fill-rule:nonzero;stroke:none"
         id="path106" /><path
         d="m 2637.03,2010.46 h -461.86 c -27.18,0 -49.21,-22.03 -49.21,-49.21 0,-27.18 22.03,-49.21 49.21,-49.21 h 461.86 c 27.18,0 49.21,22.03 49.21,49.21 0,27.18 -22.03,49.21 -49.21,49.21"
         style="fill:#5e6363;fill-opacity:1;fill-rule:nonzero;stroke:none"
         id="path108" /><path
         d="m 2637.03,2010.46 h -426.72 c -27.18,0 -49.21,-22.03 -49.21,-49.21 0,-27.18 22.03,-49.21 49.21,-49.21 h 426.72 c 27.18,0 49.21,22.03 49.21,49.21 0,27.18 -22.03,49.21 -49.21,49.21"
         style="fill:#7e8181;fill-opacity:1;fill-rule:nonzero;stroke:none"
         id="path110" /><path
         d="m 2620.3,2004.06 h -322.23 c -17.94,0 -32.49,-11.89 -32.49,-26.58 0,-14.68 14.55,-26.58 32.49,-26.58 h 322.23 c 17.94,0 32.49,11.9 32.49,26.58 0,14.69 -14.55,26.58 -32.49,26.58"
         style="fill:#a0a3a2;fill-opacity:1;fill-rule:nonzero;stroke:none"
         id="path112" /><path
         d="m 2663.28,1915.78 h -488.11 c -27.18,0 -49.21,-22.03 -49.21,-49.21 0,-27.19 22.03,-49.22 49.21,-49.22 h 488.11 c 27.18,0 49.21,22.03 49.21,49.22 0,27.18 -22.03,49.21 -49.21,49.21"
         style="fill:#d6d8d5;fill-opacity:1;fill-rule:nonzero;stroke:none"
         id="path114" /><path
         d="m 2637.03,1915.78 h -461.86 c -27.18,0 -49.21,-22.03 -49.21,-49.21 0,-27.19 22.03,-49.22 49.21,-49.22 h 461.86 c 27.18,0 49.21,22.03 49.21,49.22 0,27.18 -22.03,49.21 -49.21,49.21"
         style="fill:#5e6363;fill-opacity:1;fill-rule:nonzero;stroke:none"
         id="path116" /><path
         d="m 2637.03,1915.78 h -426.72 c -27.18,0 -49.21,-22.03 -49.21,-49.21 0,-27.19 22.03,-49.22 49.21,-49.22 h 426.72 c 27.18,0 49.21,22.03 49.21,49.22 0,27.18 -22.03,49.21 -49.21,49.21"
         style="fill:#7e8181;fill-opacity:1;fill-rule:nonzero;stroke:none"
         id="path118" /><path
         d="m 2620.3,1909.38 h -322.23 c -17.94,0 -32.49,-11.9 -32.49,-26.58 0,-14.68 14.55,-26.58 32.49,-26.58 h 322.23 c 17.94,0 32.49,11.9 32.49,26.58 0,14.68 -14.55,26.58 -32.49,26.58"
         style="fill:#a0a3a2;fill-opacity:1;fill-rule:nonzero;stroke:none"
         id="path120" /><path
         d="m 2595.57,1819.79 h -352.69 c -19.64,0 -35.57,-15.91 -35.57,-35.55 0,-19.64 15.93,-35.56 35.57,-35.56 h 352.69 c 19.64,0 35.56,15.92 35.56,35.56 0,19.64 -15.92,35.55 -35.56,35.55"
         style="fill:#d6d8d5;fill-opacity:1;fill-rule:nonzero;stroke:none"
         id="path122" /><path
         d="m 2576.6,1819.79 h -333.72 c -19.64,0 -35.57,-15.91 -35.57,-35.55 0,-19.64 15.93,-35.56 35.57,-35.56 h 333.72 c 19.64,0 35.57,15.92 35.57,35.56 0,19.64 -15.93,35.55 -35.57,35.55"
         style="fill:#5e6363;fill-opacity:1;fill-rule:nonzero;stroke:none"
         id="path124" /><path
         d="m 2576.6,1819.79 h -308.33 c -19.64,0 -35.56,-15.91 -35.56,-35.55 0,-19.64 15.92,-35.56 35.56,-35.56 h 308.33 c 19.64,0 35.57,15.92 35.57,35.56 0,19.64 -15.93,35.55 -35.57,35.55"
         style="fill:#7e8181;fill-opacity:1;fill-rule:nonzero;stroke:none"
         id="path126" /><path
         d="m 2564.52,1815.18 h -232.84 c -12.96,0 -23.47,-8.61 -23.47,-19.21 0,-10.61 10.51,-19.21 23.47,-19.21 h 232.84 c 12.96,0 23.47,8.6 23.47,19.21 0,10.6 -10.51,19.21 -23.47,19.21"
         style="fill:#a0a3a2;fill-opacity:1;fill-rule:nonzero;stroke:none"
         id="path128" /><path
         d="m 2180.48,2016.83 453.29,-5.86 -453.29,-5.86 z"
         style="fill:#5e6363;fill-opacity:1;fill-rule:nonzero;stroke:none"
         id="path130" /><path
         d="m 2180.48,1921.26 453.29,-5.85 -453.29,-5.86 z"
         style="fill:#5e6363;fill-opacity:1;fill-rule:nonzero;stroke:none"
         id="path132" /><path
         d="m 2173.45,1829.93 460.32,-10.08 -460.43,-1.63 z"
         style="fill:#5e6363;fill-opacity:1;fill-rule:nonzero;stroke:none"
         id="path134" /><path
         d="m 2948.79,2958.55 c -36.91,-12.11 -99.42,77.38 -139.62,199.89 -40.21,122.51 -42.88,231.64 -5.97,243.75 36.91,12.11 99.43,-77.38 139.62,-199.89 40.21,-122.51 42.88,-231.63 5.97,-243.75"
         style="fill:#f7f682;fill-opacity:1;fill-rule:nonzero;stroke:none"
         id="path136" /><path
         d="m 2978.79,2860.04 c 0,-23.64 -19.17,-42.8 -42.81,-42.8 -23.65,0 -42.81,19.16 -42.81,42.8 0,23.64 19.16,42.81 42.81,42.81 23.64,0 42.81,-19.17 42.81,-42.81"
         style="fill:#f7f682;fill-opacity:1;fill-rule:nonzero;stroke:none"
         id="path138" /><path
         d="m 1951.44,3171.76 c 13.11,6.6 51.07,-42.36 84.79,-109.35 33.73,-66.99 50.44,-126.65 37.33,-133.24 -13.11,-6.6 -51.07,42.35 -84.8,109.35 -33.72,66.99 -50.43,126.64 -37.32,133.24"
         style="fill:#f7f682;fill-opacity:1;fill-rule:nonzero;stroke:none"
         id="path140" /><path
         d="m 2845.21,3479.7 c 0,0 -35.76,-116.61 -404.25,-116.61 -368.49,0 -408.92,116.61 -408.92,116.61 v 354.5 h 813.17 v -354.5"
         style="fill:#133340;fill-opacity:1;fill-rule:nonzero;stroke:none"
         id="path142" /><path
         d="m 2845.21,3678.22 v 155.98 h -813.17 v -354.5 c 0,0 30.26,-86.64 274.78,-110.52 84.14,162.66 284.41,302.03 538.39,309.04"
         style="fill:#0a171d;fill-opacity:1;fill-rule:nonzero;stroke:none"
         id="path144" /><path
         d="m 2453.4,3639.33 -741.66,211.46 v 20.73 l 741.66,190.72 741.65,-190.72 v -20.73 L 2453.4,3639.33"
         style="fill:#0c242d;fill-opacity:1;fill-rule:nonzero;stroke:none"
         id="path146" /><path
         d="m 2453.4,3660.06 -741.66,211.46 741.66,211.45 741.65,-211.45 -741.65,-211.46"
         style="fill:#133340;fill-opacity:1;fill-rule:nonzero;stroke:none"
         id="path148" /><path
         d="m 2417.3,3879.04 -519.92,-48.3 c -13.13,-1.22 -23.15,-12.23 -23.15,-25.39 v -0.24 0.03 l 1.6,-202 11.71,0.09 -1.6,202.03 v 0 0.09 c 0,7.11 5.42,13.07 12.52,13.73 l 519.93,48.3 -1.09,11.66"
         style="fill:#f7f682;fill-opacity:1;fill-rule:nonzero;stroke:none"
         id="path150" /><path
         d="m 1898.77,3590.94 h -33.75 c -4.57,0 -8.27,3.7 -8.27,8.27 v 2.83 c 0,4.57 3.7,8.28 8.27,8.28 h 33.75 c 4.57,0 8.28,-3.71 8.28,-8.28 v -2.83 c 0,-4.57 -3.71,-8.27 -8.28,-8.27"
         style="fill:#f7f682;fill-opacity:1;fill-rule:nonzero;stroke:none"
         id="path152" /><path
         d="m 1857.16,3472.2 13.2,-1.24 6.18,34.64 0.41,-34.22 10.72,0.82 2.06,33.81 2.48,-36.28 h 6.18 l 1.24,19.79 2.47,-13.61 8.66,-0.41 -15.67,119.97 -26.79,-0.41 -11.14,-122.86"
         style="fill:#f7f682;fill-opacity:1;fill-rule:nonzero;stroke:none"
         id="path154" /><path
         d="m 2484.74,3872.38 c 0,-10.16 -17.97,-18.4 -40.14,-18.4 -22.16,0 -40.13,8.24 -40.13,18.4 0,10.15 17.97,18.39 40.13,18.39 22.17,0 40.14,-8.24 40.14,-18.39"
         style="fill:#f5c74a;fill-opacity:1;fill-rule:nonzero;stroke:none"
         id="path156" /><path
         d="m 2484.74,3879.29 c 0,-10.16 -17.97,-18.4 -40.14,-18.4 -22.16,0 -40.13,8.24 -40.13,18.4 0,10.16 17.97,18.39 40.13,18.39 22.17,0 40.14,-8.23 40.14,-18.39"
         style="fill:#f7f682;fill-opacity:1;fill-rule:nonzero;stroke:none"
         id="path158" /><path
         d="m 3385.98,2948.59 c -17.46,-23.19 -12.81,-56.26 10.38,-73.73 23.19,-17.46 56.27,-12.8 73.73,10.38 17.47,23.19 12.81,56.27 -10.38,73.73 -23.2,17.47 -56.26,12.81 -73.73,-10.38 z m 100.1,-75.39 c -24.11,-32.01 -69.76,-38.44 -101.76,-14.33 -32.02,24.11 -38.44,69.76 -14.34,101.77 24.11,32.01 69.77,38.44 101.78,14.33 32,-24.11 38.44,-69.76 14.32,-101.77"
         style="fill:#24578e;fill-opacity:1;fill-rule:nonzero;stroke:none"
         id="path160" /><path
         d="m 3419.18,2923.81 v 0 c -74.58,-99.03 -54.77,-239.76 44.26,-314.34 l 232.52,-175.12 270.08,358.6 -232.51,175.12 c -99.03,74.58 -239.77,54.77 -314.35,-44.26"
         style="fill:#c4e6e8;fill-opacity:1;fill-rule:nonzero;stroke:none"
         id="path162" /><path
         d="m 3695.96,2434.35 81.99,-61.75 c 17.81,-13.42 43.11,-9.86 56.53,7.96 L 4056,2674.67 c 13.4,17.81 9.84,43.11 -7.96,56.53 l -82,61.75 -270.08,-358.6"
         style="fill:#1d3e67;fill-opacity:1;fill-rule:nonzero;stroke:none"
         id="path164" /><path
         d="m 3791.57,2460.08 c -5.57,0 -11.19,1.74 -15.97,5.35 l -4.45,3.35 c 4.68,-3.36 10.1,-4.98 15.47,-4.98 8.08,0 16.05,3.66 21.28,10.6 l 148.45,197.1 c 8.76,11.63 6.53,28.11 -4.92,37.01 l 4.61,-3.48 c 11.74,-8.83 14.1,-25.51 5.26,-37.25 l -148.45,-197.1 c -5.23,-6.94 -13.21,-10.6 -21.28,-10.6"
         style="fill:#1b3355;fill-opacity:1;fill-rule:nonzero;stroke:none"
         id="path166" /><path
         d="m 3683.49,2534.8 87.15,-65.65 c 11.74,-8.84 28.42,-6.48 37.26,5.25 l 148.45,197.1 c 8.85,11.74 6.49,28.42 -5.25,37.26 l -87.15,65.64 -180.46,-239.6"
         style="fill:#4196d8;fill-opacity:1;fill-rule:nonzero;stroke:none"
         id="path168" /><path
         d="m 3726.05,2540.14 c -1.57,-2.09 -4.55,-2.51 -6.63,-0.94 -2.09,1.58 -2.51,4.54 -0.93,6.64 1.57,2.08 4.54,2.5 6.63,0.93 2.09,-1.57 2.51,-4.54 0.93,-6.63 m 0.76,12.74 c -7.91,4.64 -18.91,10.71 -22.77,12.32 -2.96,1.69 -6.76,0.99 -8.86,-1.81 -2.29,-3.03 -1.68,-7.33 1.34,-9.62 4.14,-4.69 15.75,-17.13 19.19,-19.49 4.81,-3.62 11.64,-2.66 15.27,2.15 3.35,4.45 2.72,10.62 -1.21,14.39 l -2.96,2.06"
         style="fill:#b6b8b7;fill-opacity:1;fill-rule:nonzero;stroke:none"
         id="path170" /><path
         d="m 3569.85,2796.61 -50.42,-7.1 c -6.27,-0.88 -12.07,3.49 -12.96,9.76 l -7.09,50.42 c -0.88,6.27 3.48,12.07 9.75,12.96 l 50.42,7.1 c 6.28,0.88 12.08,-3.49 12.96,-9.76 l 7.1,-50.42 c 0.89,-6.27 -3.49,-12.07 -9.76,-12.96"
         style="fill:#1d3e67;fill-opacity:1;fill-rule:nonzero;stroke:none"
         id="path172" /><path
         d="m 3574.08,2793.42 -0.13,0.92 -57.84,-8.14 -1.48,-0.11 c -5.17,0 -9.69,3.81 -10.42,9.07 l -8.14,57.85 -0.11,1.49 c 0,5.16 3.81,9.68 9.07,10.42 l 57.84,8.14 1.49,0.11 c 5.16,0 9.68,-3.81 10.42,-9.08 l 8.15,-57.84 0.1,-1.48 c 0,-5.17 -3.8,-9.69 -9.08,-10.43 l 0.13,-0.92 0.13,-0.92 c 6.2,0.88 10.68,6.19 10.68,12.27 l -0.12,1.74 -8.15,57.84 c -0.88,6.19 -6.18,10.67 -12.26,10.67 l -1.75,-0.12 -57.84,-8.15 c -6.19,-0.87 -10.67,-6.17 -10.67,-12.25 l 0.13,-1.75 8.14,-57.85 c 0.87,-6.19 6.17,-10.66 12.26,-10.66 l 1.74,0.12 57.84,8.14 -0.13,0.92"
         style="fill:#1d3e67;fill-opacity:1;fill-rule:nonzero;stroke:none"
         id="path174" /><path
         d="m 3550.39,2806.56 -0.52,-0.68 c -0.84,-1.11 -2.41,-1.33 -3.51,-0.49 l -30.26,22.78 c -1.11,0.84 -1.32,2.41 -0.49,3.51 l 0.51,0.69 c 0.83,1.1 2.41,1.33 3.51,0.49 l 30.26,-22.79 c 1.11,-0.83 1.33,-2.4 0.5,-3.51"
         style="fill:#122135;fill-opacity:1;fill-rule:nonzero;stroke:none"
         id="path176" /><path
         d="m 3563.54,2824.02 -0.52,-0.69 c -0.83,-1.1 -2.4,-1.32 -3.51,-0.49 l -30.26,22.79 c -1.11,0.83 -1.33,2.41 -0.5,3.51 l 0.52,0.68 c 0.84,1.11 2.41,1.33 3.51,0.5 l 30.26,-22.79 c 1.11,-0.83 1.33,-2.4 0.5,-3.51"
         style="fill:#122135;fill-opacity:1;fill-rule:nonzero;stroke:none"
         id="path178" /><path
         d="m 3826.82,2802.37 c -11.74,8.84 -28.42,6.49 -37.26,-5.25 l -148.45,-197.1 c -8.84,-11.73 -6.49,-28.41 5.25,-37.25 l 37.13,-27.97 180.46,239.6 -37.13,27.97"
         style="fill:#1d3e67;fill-opacity:1;fill-rule:nonzero;stroke:none"
         id="path180" /><path
         d="m 3432.74,2918.07 c 49.63,71.59 179.38,128.03 295.08,40.89 107.99,-81.33 150.15,-113.08 150.15,-113.08 0,0 -166.66,118.44 -224.81,131.22 -94.02,20.68 -162.16,3.91 -220.42,-59.03"
         style="fill:#ffffff;fill-opacity:1;fill-rule:nonzero;stroke:none"
         id="path182" /><path
         d="m 3690.68,2529.39 -7.19,5.41 13.71,18.21 c 1.55,-1.74 3.79,-4.18 6.2,-6.73 l -12.72,-16.89 m 23.2,30.8 c -3.16,1.72 -6.04,3.23 -8.1,4.22 l 158.17,209.99 7.18,-5.41 v -0.01 l -157.25,-208.79"
         style="fill:#377dbf;fill-opacity:1;fill-rule:nonzero;stroke:none"
         id="path184" /><path
         d="m 3703.4,2546.28 c -2.41,2.55 -4.65,4.99 -6.2,6.73 l 8.58,11.4 c 2.06,-0.99 4.94,-2.5 8.1,-4.22 l -10.48,-13.91"
         style="fill:#87979e;fill-opacity:1;fill-rule:nonzero;stroke:none"
         id="path186" /><path
         d="m 3943.27,2663.8 c 0.92,-0.69 -29.26,-42.29 -67.38,-92.92 -38.14,-50.63 -69.79,-91.11 -70.7,-90.42 -0.92,0.69 29.24,42.29 67.38,92.92 38.12,50.63 69.78,91.11 70.7,90.42"
         style="fill:#48afe7;fill-opacity:1;fill-rule:nonzero;stroke:none"
         id="path188" /><path
         d="m 3671.91,3449.42 c 0,-35.69 -28.93,-64.63 -64.62,-64.63 -35.71,0 -64.64,28.94 -64.64,64.63 0,35.7 28.93,64.63 64.64,64.63 35.69,0 64.62,-28.93 64.62,-64.63"
         style="fill:#aa1c22;fill-opacity:1;fill-rule:nonzero;stroke:none"
         id="path190" /><path
         d="m 3663.55,3461.94 c 0,-27.55 -22.33,-49.87 -49.88,-49.87 -27.55,0 -49.87,22.32 -49.87,49.87 0,27.55 22.32,49.88 49.87,49.88 27.55,0 49.88,-22.33 49.88,-49.88"
         style="fill:#d91e25;fill-opacity:1;fill-rule:nonzero;stroke:none"
         id="path192" /><path
         d="m 3655.01,3476.89 c -3.24,-3.76 -13.17,-0.49 -22.18,7.29 -9.01,7.78 -13.68,17.12 -10.44,20.88 3.24,3.75 13.18,0.49 22.18,-7.29 9,-7.77 13.68,-17.13 10.44,-20.88"
         style="fill:#f25b1a;fill-opacity:1;fill-rule:nonzero;stroke:none"
         id="path194" /><path
         d="m 3689.62,3478.12 -6.86,-2.44 c 22.58,-63.59 33.68,-124.85 33.66,-173.22 0.02,-27.08 -3.5,-50.1 -10.06,-66.96 -3.27,-8.44 -7.28,-15.32 -11.83,-20.5 -4.56,-5.2 -9.6,-8.71 -15.29,-10.74 -3.64,-1.3 -7.45,-1.93 -11.52,-1.94 -10.97,-0.03 -24.06,4.86 -38.15,14.76 -21.14,14.8 -44.14,40.55 -65.77,74.18 -21.65,33.64 -42.02,75.13 -58.45,121.44 -22.59,63.59 -33.69,124.85 -33.68,173.22 -0.01,27.08 3.51,50.09 10.07,66.96 3.27,8.44 7.28,15.31 11.83,20.5 4.56,5.19 9.6,8.71 15.29,10.74 3.65,1.29 7.46,1.93 11.52,1.93 10.98,0.03 24.07,-4.85 38.15,-14.76 21.14,-14.79 44.14,-40.54 65.77,-74.18 21.65,-33.63 42.02,-75.12 58.46,-121.43 l 6.86,2.44 6.86,2.44 c -22.4,63.05 -51.88,117.46 -82.72,156.48 -15.44,19.51 -31.21,35.19 -46.86,46.18 -15.64,10.95 -31.27,17.36 -46.52,17.4 -5.6,0 -11.12,-0.9 -16.39,-2.78 -8.25,-2.92 -15.44,-8.08 -21.37,-14.86 -8.92,-10.19 -15.18,-23.91 -19.34,-40.3 -4.15,-16.39 -6.17,-35.52 -6.17,-56.76 0.01,-50.55 11.45,-113.13 34.51,-178.1 22.4,-63.06 51.87,-117.47 82.72,-156.49 15.44,-19.51 31.21,-35.18 46.86,-46.17 15.64,-10.95 31.27,-17.37 46.52,-17.4 5.61,0 11.13,0.9 16.4,2.77 8.25,2.92 15.44,8.09 21.37,14.86 8.91,10.2 15.17,23.92 19.33,40.3 4.15,16.4 6.17,35.53 6.17,56.77 -0.01,50.55 -11.45,113.13 -34.51,178.1 l -6.86,-2.44"
         style="fill:#7dcfbd;fill-opacity:1;fill-rule:nonzero;stroke:none"
         id="path196" /><path
         d="m 3690.31,3380.19 -5.65,4.6 c -36.58,-44.98 -76.08,-81.81 -112.7,-107.23 -36.56,-25.49 -70.45,-39.26 -94.31,-39.14 -11.21,0.02 -19.96,2.82 -26.68,8.26 -4.93,4.03 -8.63,9.36 -11.2,16.28 -2.57,6.91 -3.92,15.37 -3.92,25.17 -0.04,25.41 9.21,59.44 26.81,96.9 17.57,37.49 43.37,78.5 75.96,118.56 36.58,44.98 76.08,81.81 112.7,107.23 36.56,25.49 70.46,39.26 94.32,39.14 11.2,-0.02 19.96,-2.82 26.68,-8.27 4.93,-4.02 8.63,-9.36 11.2,-16.27 2.57,-6.9 3.92,-15.37 3.92,-25.16 0.04,-25.42 -9.22,-59.45 -26.81,-96.91 -17.57,-37.49 -43.37,-78.5 -75.97,-118.56 l 5.65,-4.6 5.65,-4.6 c 33.29,40.93 59.69,82.84 77.86,121.58 18.14,38.76 28.14,74.27 28.19,103.09 -0.01,11.11 -1.51,21.27 -4.83,30.22 -3.31,8.95 -8.51,16.7 -15.67,22.51 -9.78,7.97 -22.25,11.56 -35.87,11.54 -29.12,-0.13 -64.59,-15.43 -102.63,-41.74 -37.97,-26.38 -78.32,-64.07 -115.69,-110.01 -33.29,-40.92 -59.69,-82.83 -77.85,-121.56 -18.14,-38.77 -28.15,-74.28 -28.19,-103.09 0.01,-11.12 1.51,-21.28 4.83,-30.23 3.31,-8.95 8.51,-16.7 15.67,-22.51 9.78,-7.97 22.25,-11.56 35.87,-11.54 29.12,0.12 64.58,15.43 102.62,41.74 37.98,26.38 78.32,64.07 115.69,110 l -5.65,4.6"
         style="fill:#7dcfbd;fill-opacity:1;fill-rule:nonzero;stroke:none"
         id="path198" /><path
         d="m 3605.56,3342.96 0.43,7.27 c -70.39,4.21 -133.54,19 -178.52,39.22 -22.48,10.08 -40.38,21.55 -52.31,33.33 -11.99,11.84 -17.74,23.57 -17.73,34.71 l 0.06,1.96 v 0.01 c 0.63,10.25 6.03,20.23 16.71,29.93 15.94,14.5 43.45,27.28 78.59,36.08 35.14,8.85 77.88,13.9 124.47,13.89 13.06,0 26.43,-0.39 40.03,-1.21 70.39,-4.21 133.54,-19 178.52,-39.22 22.48,-10.08 40.38,-21.55 52.31,-33.33 11.99,-11.84 17.74,-23.57 17.73,-34.71 l -0.06,-1.97 -0.02,-0.29 0.02,0.29 c -0.63,-10.25 -6.03,-20.23 -16.71,-29.93 -15.94,-14.5 -43.44,-27.28 -78.58,-36.08 -35.14,-8.85 -77.88,-13.9 -124.47,-13.89 -13.07,0 -26.44,0.39 -40.04,1.21 l -0.43,-7.27 -0.44,-7.27 c 13.88,-0.83 27.54,-1.24 40.91,-1.24 63.53,0.02 120.22,9.09 162.06,24.88 20.93,7.91 38.18,17.49 50.77,28.86 12.54,11.31 20.57,24.82 21.47,39.86 v 0.01 c 0.05,0.94 0.08,1.88 0.08,2.83 -0.02,16.37 -8.4,31.63 -22.06,45.08 -20.6,20.24 -53.63,37.51 -95.05,50.89 -41.41,13.33 -91.21,22.59 -145.14,25.83 -13.88,0.83 -27.54,1.24 -40.9,1.24 -63.54,-0.02 -120.23,-9.09 -162.07,-24.88 -20.92,-7.91 -38.18,-17.49 -50.76,-28.86 -12.55,-11.31 -20.58,-24.82 -21.48,-39.86 l 0.01,0.01 c -0.06,-0.96 -0.09,-1.91 -0.09,-2.85 0.02,-16.37 8.4,-31.63 22.06,-45.08 20.6,-20.24 53.63,-37.52 95.05,-50.89 41.41,-13.33 91.21,-22.59 145.14,-25.83 l 0.44,7.27"
         style="fill:#7dcfbd;fill-opacity:1;fill-rule:nonzero;stroke:none"
         id="path200" /><path
         d="m 3801.15,3663.73 c 18.58,-12.28 23.68,-37.3 11.41,-55.87 -12.29,-18.58 -37.3,-23.69 -55.87,-11.4 -18.57,12.28 -23.68,37.29 -11.41,55.86 12.29,18.58 37.3,23.68 55.87,11.41"
         style="fill:#3ba2a2;fill-opacity:1;fill-rule:nonzero;stroke:none"
         id="path202" /><path
         d="m 3791.76,3663.68 c 14.33,-9.48 18.27,-28.78 8.8,-43.11 -9.48,-14.33 -28.78,-18.28 -43.12,-8.8 -14.33,9.48 -18.27,28.78 -8.8,43.11 9.49,14.34 28.78,18.27 43.12,8.8"
         style="fill:#44bec0;fill-opacity:1;fill-rule:nonzero;stroke:none"
         id="path204" /><path
         d="m 3781.04,3664.37 c 0.84,-2.97 -4.27,-7.02 -11.42,-9.03 -7.15,-2.01 -13.61,-1.23 -14.45,1.75 -0.84,2.98 4.27,7.03 11.41,9.03 7.15,2.01 13.63,1.23 14.46,-1.75"
         style="fill:#7dcfbd;fill-opacity:1;fill-rule:nonzero;stroke:none"
         id="path206" /><path
         d="m 3381.6,3499.88 c 18.58,-12.28 23.68,-37.29 11.41,-55.87 -12.28,-18.58 -37.3,-23.68 -55.87,-11.4 -18.58,12.28 -23.68,37.29 -11.4,55.87 12.28,18.57 37.29,23.67 55.86,11.4"
         style="fill:#3ba2a2;fill-opacity:1;fill-rule:nonzero;stroke:none"
         id="path208" /><path
         d="m 3372.21,3499.83 c 14.33,-9.47 18.28,-28.78 8.8,-43.11 -9.48,-14.33 -28.77,-18.27 -43.11,-8.8 -14.34,9.48 -18.28,28.78 -8.8,43.12 9.47,14.33 28.78,18.27 43.11,8.79"
         style="fill:#44bec0;fill-opacity:1;fill-rule:nonzero;stroke:none"
         id="path210" /><path
         d="m 3361.49,3500.53 c 0.84,-2.98 -4.27,-7.02 -11.42,-9.04 -7.14,-2.01 -13.61,-1.22 -14.45,1.75 -0.84,2.98 4.27,7.03 11.42,9.04 7.14,2.01 13.61,1.23 14.45,-1.75"
         style="fill:#7dcfbd;fill-opacity:1;fill-rule:nonzero;stroke:none"
         id="path212" /><path
         d="m 3716.75,3251.63 c 18.57,-12.28 23.68,-37.3 11.39,-55.87 -12.27,-18.58 -37.28,-23.68 -55.85,-11.4 -18.58,12.28 -23.69,37.29 -11.41,55.86 12.28,18.58 37.29,23.68 55.87,11.41"
         style="fill:#3ba2a2;fill-opacity:1;fill-rule:nonzero;stroke:none"
         id="path214" /><path
         d="m 3707.35,3251.58 c 14.34,-9.48 18.28,-28.78 8.8,-43.11 -9.47,-14.33 -28.78,-18.27 -43.11,-8.8 -14.34,9.48 -18.27,28.78 -8.8,43.11 9.48,14.34 28.78,18.27 43.11,8.8"
         style="fill:#44bec0;fill-opacity:1;fill-rule:nonzero;stroke:none"
         id="path216" /><path
         d="m 3696.63,3252.28 c 0.84,-2.98 -4.27,-7.03 -11.42,-9.04 -7.14,-2.01 -13.62,-1.23 -14.45,1.75 -0.84,2.98 4.27,7.03 11.42,9.04 7.15,2.01 13.62,1.22 14.45,-1.75"
         style="fill:#7dcfbd;fill-opacity:1;fill-rule:nonzero;stroke:none"
         id="path218" /><path
         d="m 3655.68,4436 -55.27,-25.1 c -2.46,-1.11 -5.37,-0.02 -6.48,2.44 l -17.63,38.83 c -1.11,2.46 -0.03,5.36 2.43,6.48 l 55.28,25.09 c 2.46,1.12 5.37,0.03 6.48,-2.43 l 17.64,-38.83 c 1.11,-2.46 0.01,-5.37 -2.45,-6.48"
         style="fill:#1d4e53;fill-opacity:1;fill-rule:nonzero;stroke:none"
         id="path220" /><path
         d="m 3719.73,4331.55 -59.17,130.34 -84.25,-38.24 59.17,-130.35 c -87.33,-63.17 -121.12,-181.05 -74.85,-282.99 52.82,-116.36 189.98,-167.87 306.33,-115.05 116.37,52.82 167.87,189.97 115.06,306.33 -46.27,101.93 -157.25,154.09 -262.29,129.96"
         style="fill:#bae4f8;fill-opacity:1;fill-rule:nonzero;stroke:none"
         id="path222" /><path
         d="m 3589.3,4394.63 84.4,38.31 -13.14,28.95 -84.41,-38.3 13.15,-28.96"
         style="fill:#97d9f5;fill-opacity:1;fill-rule:nonzero;stroke:none"
         id="path224" /><path
         d="m 3684.09,4459.45 -121.43,-55.12 c -5.74,-2.6 -12.48,-0.06 -15.08,5.67 l -1.61,3.55 c -2.6,5.72 -0.06,12.47 5.66,15.07 l 121.44,55.12 c 5.72,2.6 12.47,0.06 15.06,-5.66 l 1.62,-3.56 c 2.59,-5.73 0.06,-12.47 -5.66,-15.07"
         style="fill:#bae4f8;fill-opacity:1;fill-rule:nonzero;stroke:none"
         id="path226" /><path
         d="m 3759.58,4082.03 c -35.26,-8.89 -72.8,-3.58 -108.33,-11.35 -27.97,-6.11 -53.87,-20.71 -74.12,-40.91 1.33,-3.39 2.48,-6.8 4,-10.15 47.69,-105.04 171.49,-151.54 276.53,-103.86 105.03,47.68 151.54,171.49 103.85,276.53 -7.15,15.77 -16.21,30.05 -26.49,43.07 -23.37,-18.35 -40.77,-43.19 -59.36,-66.46 -30.72,-38.45 -68.36,-74.84 -116.08,-86.87"
         style="fill:#4bc0c0;fill-opacity:1;fill-rule:nonzero;stroke:none"
         id="path228" /><path
         d="m 3772.92,3886.32 c -5.78,0 -11.54,0.23 -17.28,0.69 22.13,1.85 44.32,7.12 65.83,16.14 12.21,3.04 24.32,7.23 36.19,12.61 105.03,47.68 151.54,171.49 103.85,276.53 -7.15,15.77 -16.21,30.05 -26.49,43.07 -5.34,-4.2 -10.37,-8.73 -15.17,-13.5 -37.38,57.79 -99.25,93.11 -165.26,98.39 6.02,0.5 12.04,0.75 18.04,0.75 82.64,0 161.62,-47.36 198,-127.52 49.61,-109.28 1.23,-238.09 -108.06,-287.71 -29.12,-13.22 -59.63,-19.45 -89.65,-19.45"
         style="fill:#79beeb;fill-opacity:1;fill-rule:nonzero;stroke:none"
         id="path230" /><path
         d="m 3821.47,3903.15 c 1.95,0.82 3.9,1.68 5.84,2.56 109.29,49.61 157.68,178.42 108.07,287.71 -4.54,10 -9.74,19.49 -15.53,28.44 4.8,4.77 9.83,9.3 15.17,13.5 10.28,-13.02 19.34,-27.3 26.49,-43.07 47.69,-105.04 1.18,-228.85 -103.85,-276.53 -11.87,-5.38 -23.98,-9.57 -36.19,-12.61"
         style="fill:#419bb8;fill-opacity:1;fill-rule:nonzero;stroke:none"
         id="path232" /><path
         d="m 3730.9,4023.79 c 2.75,-6.06 0.07,-13.2 -6,-15.96 -6.06,-2.75 -13.21,-0.06 -15.95,6 -2.76,6.06 -0.08,13.21 5.98,15.96 6.07,2.75 13.21,0.07 15.97,-6"
         style="fill:#296c7a;fill-opacity:1;fill-rule:nonzero;stroke:none"
         id="path234" /><path
         d="m 3779.19,4014.86 c 0.68,-1.52 0.02,-3.3 -1.49,-3.98 -1.52,-0.69 -3.31,-0.02 -3.99,1.49 -0.69,1.51 -0.02,3.29 1.5,3.98 1.51,0.69 3.29,0.02 3.98,-1.49"
         style="fill:#296c7a;fill-opacity:1;fill-rule:nonzero;stroke:none"
         id="path236" /><path
         d="m 3809.27,4068.16 c 1.18,-2.59 0.03,-5.65 -2.56,-6.83 -2.6,-1.17 -5.66,-0.03 -6.83,2.56 -1.18,2.6 -0.03,5.66 2.56,6.84 2.6,1.17 5.66,0.03 6.83,-2.57"
         style="fill:#296c7a;fill-opacity:1;fill-rule:nonzero;stroke:none"
         id="path238" /><path
         d="m 3834.3,3966.24 c 1.86,-4.11 0.05,-8.95 -4.07,-10.82 -4.1,-1.86 -8.94,-0.04 -10.81,4.07 -1.86,4.1 -0.04,8.94 4.07,10.81 4.11,1.86 8.94,0.04 10.81,-4.06"
         style="fill:#296c7a;fill-opacity:1;fill-rule:nonzero;stroke:none"
         id="path240" /><path
         d="m 3913.93,4078.85 c 3.82,-8.43 0.09,-18.37 -8.33,-22.19 -8.43,-3.83 -18.37,-0.1 -22.2,8.34 -3.83,8.42 -0.09,18.36 8.34,22.18 8.43,3.83 18.36,0.1 22.19,-8.33"
         style="fill:#296c7a;fill-opacity:1;fill-rule:nonzero;stroke:none"
         id="path242" /><path
         d="m 3863.67,4015.91 c 3.43,-7.56 0.08,-16.48 -7.48,-19.91 -7.57,-3.44 -16.48,-0.09 -19.92,7.48 -3.43,7.57 -0.08,16.48 7.48,19.91 7.57,3.44 16.48,0.09 19.92,-7.48"
         style="fill:#296c7a;fill-opacity:1;fill-rule:nonzero;stroke:none"
         id="path244" /><path
         d="m 3769.35,3967.91 c 8.43,-18.59 0.2,-40.5 -18.38,-48.94 -18.6,-8.44 -40.5,-0.21 -48.94,18.38 -8.44,18.59 -0.21,40.5 18.38,48.94 18.58,8.44 40.5,0.2 48.94,-18.38"
         style="fill:#296c7a;fill-opacity:1;fill-rule:nonzero;stroke:none"
         id="path246" /><path
         d="m 4220.31,3049.85 145.34,152.61 c 10.09,10.59 9.68,27.35 -0.9,37.44 l -191.39,182.28 c -10.6,10.08 -27.35,9.68 -37.44,-0.91 l -145.34,-152.62 c -10.09,-10.59 -9.68,-27.35 0.9,-37.43 l 191.39,-182.28 c 10.59,-10.09 27.35,-9.68 37.44,0.91"
         style="fill:#97c7d0;fill-opacity:1;fill-rule:nonzero;stroke:none"
         id="path248" /><path
         d="m 4221.85,3057.13 145.36,152.61 c 10.08,10.59 9.68,27.35 -0.92,37.44 l -191.39,182.27 c -10.58,10.09 -27.35,9.68 -37.44,-0.91 l -145.34,-152.61 c -10.09,-10.59 -9.68,-27.35 0.91,-37.44 l 191.38,-182.27 c 10.6,-10.09 27.36,-9.68 37.44,0.91"
         style="fill:#c4e6e8;fill-opacity:1;fill-rule:nonzero;stroke:none"
         id="path250" /><path
         d="m 4191.81,3364.99 -133.58,-140.24 c -3.8,-3.99 -10.12,-4.15 -14.12,-0.34 l -28.77,27.4 c -4,3.81 -4.15,10.13 -0.35,14.13 l 133.57,140.24 c 3.8,4 10.13,4.15 14.13,0.34 l 28.77,-27.4 c 4,-3.81 4.15,-10.13 0.35,-14.13"
         style="fill:#193150;fill-opacity:1;fill-rule:nonzero;stroke:none"
         id="path252" /><path
         d="M 4188.72,3365.98 4057.1,3227.79 c -2.95,-3.11 -7.86,-3.22 -10.97,-0.27 l -27.78,26.46 c -3.11,2.96 -3.22,7.87 -0.27,10.97 l 131.62,138.19 c 2.96,3.1 7.86,3.23 10.96,0.27 l 27.79,-26.46 c 3.1,-2.96 3.22,-7.87 0.27,-10.97"
         style="fill:#1d4069;fill-opacity:1;fill-rule:nonzero;stroke:none"
         id="path254" /><path
         d="m 4132.39,3185.95 -16.72,-17.56 c -3.35,-3.51 -8.91,-3.65 -12.43,-0.3 l -23.91,22.78 c -3.52,3.35 -3.66,8.92 -0.31,12.44 l 16.71,17.54 c 3.35,3.52 8.92,3.66 12.44,0.31 l 23.92,-22.78 c 3.52,-3.35 3.65,-8.92 0.3,-12.43"
         style="fill:#2a62a3;fill-opacity:1;fill-rule:nonzero;stroke:none"
         id="path256" /><path
         d="m 4129.79,3188.31 -16.6,-17.44 c -2.27,-2.39 -6.06,-2.48 -8.45,-0.2 l -22.91,21.82 c -2.4,2.28 -2.49,6.06 -0.21,8.46 l 16.59,17.43 c 2.29,2.39 6.07,2.48 8.46,0.2 l 22.92,-21.82 c 2.39,-2.28 2.48,-6.07 0.2,-8.45"
         style="fill:#3676c4;fill-opacity:1;fill-rule:nonzero;stroke:none"
         id="path258" /><path
         d="m 4172.29,3227.85 -16.7,-17.55 c -3.35,-3.52 -8.93,-3.66 -12.45,-0.31 l -23.91,22.78 c -3.52,3.35 -3.65,8.92 -0.3,12.44 l 16.71,17.54 c 3.35,3.52 8.92,3.66 12.44,0.31 l 23.91,-22.78 c 3.52,-3.35 3.65,-8.92 0.3,-12.43"
         style="fill:#2a62a3;fill-opacity:1;fill-rule:nonzero;stroke:none"
         id="path260" /><path
         d="m 4169.7,3230.21 -16.6,-17.44 c -2.28,-2.39 -6.07,-2.48 -8.45,-0.2 l -22.92,21.82 c -2.39,2.28 -2.48,6.06 -0.21,8.46 l 16.61,17.43 c 2.27,2.39 6.06,2.48 8.45,0.2 l 22.91,-21.82 c 2.39,-2.28 2.49,-6.06 0.21,-8.45"
         style="fill:#3676c4;fill-opacity:1;fill-rule:nonzero;stroke:none"
         id="path262" /><path
         d="m 4212.2,3269.75 -16.71,-17.56 c -3.35,-3.51 -8.92,-3.65 -12.43,-0.3 l -23.93,22.78 c -3.51,3.35 -3.65,8.92 -0.3,12.43 l 16.72,17.55 c 3.35,3.52 8.91,3.66 12.43,0.31 l 23.91,-22.78 c 3.53,-3.35 3.67,-8.92 0.31,-12.43"
         style="fill:#2a62a3;fill-opacity:1;fill-rule:nonzero;stroke:none"
         id="path264" /><path
         d="m 4209.61,3272.1 -16.6,-17.43 c -2.29,-2.39 -6.07,-2.48 -8.46,-0.2 l -22.92,21.82 c -2.39,2.28 -2.48,6.06 -0.2,8.46 l 16.6,17.43 c 2.27,2.39 6.06,2.48 8.45,0.2 l 22.92,-21.82 c 2.39,-2.28 2.48,-6.07 0.21,-8.46"
         style="fill:#3676c4;fill-opacity:1;fill-rule:nonzero;stroke:none"
         id="path266" /><path
         d="m 4252.11,3311.65 -16.72,-17.55 c -3.35,-3.52 -8.92,-3.66 -12.43,-0.31 l -23.92,22.78 c -3.51,3.35 -3.65,8.92 -0.3,12.43 l 16.71,17.56 c 3.35,3.51 8.92,3.65 12.44,0.3 l 23.92,-22.78 c 3.51,-3.35 3.65,-8.92 0.3,-12.43"
         style="fill:#2a62a3;fill-opacity:1;fill-rule:nonzero;stroke:none"
         id="path268" /><path
         d="m 4249.51,3314 -16.6,-17.43 c -2.28,-2.39 -6.06,-2.48 -8.46,-0.2 l -22.91,21.82 c -2.39,2.28 -2.49,6.07 -0.2,8.46 l 16.59,17.43 c 2.28,2.39 6.06,2.48 8.46,0.2 l 22.92,-21.82 c 2.39,-2.28 2.48,-6.06 0.2,-8.46"
         style="fill:#3676c4;fill-opacity:1;fill-rule:nonzero;stroke:none"
         id="path270" /><path
         d="m 4180.8,3139.84 -16.71,-17.55 c -3.36,-3.52 -8.92,-3.65 -12.44,-0.3 l -23.92,22.78 c -3.51,3.35 -3.65,8.91 -0.3,12.43 l 16.72,17.55 c 3.35,3.52 8.92,3.65 12.43,0.3 l 23.92,-22.77 c 3.51,-3.36 3.65,-8.93 0.3,-12.44"
         style="fill:#2a62a3;fill-opacity:1;fill-rule:nonzero;stroke:none"
         id="path272" /><path
         d="m 4178.2,3142.2 -16.6,-17.43 c -2.27,-2.39 -6.05,-2.48 -8.45,-0.21 l -22.92,21.83 c -2.39,2.27 -2.48,6.06 -0.2,8.45 l 16.6,17.43 c 2.28,2.39 6.07,2.49 8.46,0.21 l 22.91,-21.83 c 2.39,-2.28 2.49,-6.06 0.2,-8.45"
         style="fill:#3676c4;fill-opacity:1;fill-rule:nonzero;stroke:none"
         id="path274" /><path
         d="m 4220.7,3181.74 -16.71,-17.55 c -3.35,-3.52 -8.91,-3.65 -12.43,-0.3 l -23.92,22.78 c -3.52,3.34 -3.66,8.91 -0.31,12.43 l 16.72,17.55 c 3.35,3.52 8.92,3.65 12.43,0.3 l 23.92,-22.78 c 3.53,-3.34 3.66,-8.92 0.3,-12.43"
         style="fill:#2a62a3;fill-opacity:1;fill-rule:nonzero;stroke:none"
         id="path276" /><path
         d="m 4218.12,3184.1 -16.61,-17.43 c -2.28,-2.39 -6.06,-2.49 -8.45,-0.21 l -22.92,21.83 c -2.4,2.27 -2.48,6.06 -0.21,8.45 l 16.6,17.43 c 2.28,2.39 6.07,2.49 8.46,0.2 l 22.91,-21.82 c 2.39,-2.28 2.49,-6.06 0.22,-8.45"
         style="fill:#3676c4;fill-opacity:1;fill-rule:nonzero;stroke:none"
         id="path278" /><path
         d="m 4260.62,3223.64 -16.72,-17.55 c -3.35,-3.52 -8.92,-3.65 -12.44,-0.3 l -23.91,22.77 c -3.52,3.35 -3.65,8.92 -0.3,12.44 l 16.71,17.55 c 3.34,3.52 8.91,3.65 12.43,0.3 l 23.92,-22.78 c 3.52,-3.35 3.65,-8.92 0.31,-12.43"
         style="fill:#2a62a3;fill-opacity:1;fill-rule:nonzero;stroke:none"
         id="path280" /><path
         d="m 4258.02,3226 -16.6,-17.44 c -2.28,-2.39 -6.07,-2.48 -8.46,-0.2 l -22.91,21.83 c -2.39,2.27 -2.49,6.06 -0.21,8.45 l 16.6,17.43 c 2.28,2.39 6.06,2.48 8.45,0.2 l 22.92,-21.82 c 2.4,-2.28 2.48,-6.06 0.21,-8.45"
         style="fill:#3676c4;fill-opacity:1;fill-rule:nonzero;stroke:none"
         id="path282" /><path
         d="m 4300.52,3265.54 -16.72,-17.55 c -3.35,-3.52 -8.92,-3.65 -12.43,-0.3 l -23.92,22.77 c -3.51,3.35 -3.65,8.92 -0.3,12.44 l 16.72,17.55 c 3.35,3.51 8.91,3.65 12.43,0.3 l 23.91,-22.78 c 3.52,-3.35 3.66,-8.92 0.31,-12.43"
         style="fill:#2a62a3;fill-opacity:1;fill-rule:nonzero;stroke:none"
         id="path284" /><path
         d="m 4297.92,3267.9 -16.6,-17.44 c -2.28,-2.38 -6.07,-2.48 -8.45,-0.2 l -22.92,21.82 c -2.39,2.29 -2.48,6.07 -0.2,8.46 l 16.6,17.43 c 2.27,2.39 6.06,2.48 8.44,0.2 l 22.92,-21.82 c 2.4,-2.28 2.49,-6.06 0.21,-8.45"
         style="fill:#3676c4;fill-opacity:1;fill-rule:nonzero;stroke:none"
         id="path286" /><path
         d="m 4229.21,3093.73 -16.71,-17.55 c -3.35,-3.51 -8.92,-3.65 -12.43,-0.3 l -23.93,22.78 c -3.51,3.35 -3.65,8.91 -0.3,12.43 l 16.72,17.55 c 3.35,3.52 8.91,3.65 12.43,0.31 l 23.92,-22.78 c 3.52,-3.35 3.65,-8.92 0.3,-12.44"
         style="fill:#2a62a3;fill-opacity:1;fill-rule:nonzero;stroke:none"
         id="path288" /><path
         d="m 4226.62,3096.09 -16.6,-17.43 c -2.29,-2.39 -6.06,-2.48 -8.46,-0.2 l -22.92,21.82 c -2.39,2.28 -2.48,6.06 -0.2,8.46 l 16.6,17.42 c 2.27,2.39 6.06,2.49 8.46,0.21 l 22.91,-21.82 c 2.39,-2.28 2.49,-6.07 0.21,-8.46"
         style="fill:#3676c4;fill-opacity:1;fill-rule:nonzero;stroke:none"
         id="path290" /><path
         d="m 4269.12,3135.63 -16.72,-17.55 c -3.35,-3.51 -8.91,-3.65 -12.43,-0.3 l -23.92,22.78 c -3.52,3.35 -3.65,8.92 -0.3,12.43 l 16.71,17.55 c 3.35,3.52 8.92,3.65 12.44,0.3 l 23.92,-22.77 c 3.51,-3.35 3.65,-8.92 0.3,-12.44"
         style="fill:#2a62a3;fill-opacity:1;fill-rule:nonzero;stroke:none"
         id="path292" /><path
         d="m 4266.52,3137.99 -16.6,-17.43 c -2.27,-2.39 -6.06,-2.48 -8.46,-0.21 l -22.91,21.83 c -2.39,2.28 -2.49,6.06 -0.2,8.45 l 16.59,17.43 c 2.29,2.39 6.07,2.49 8.46,0.21 l 22.92,-21.82 c 2.39,-2.28 2.48,-6.07 0.2,-8.46"
         style="fill:#3676c4;fill-opacity:1;fill-rule:nonzero;stroke:none"
         id="path294" /><path
         d="m 4309.02,3177.53 -16.72,-17.55 c -3.34,-3.52 -8.91,-3.65 -12.43,-0.3 l -23.91,22.78 c -3.52,3.35 -3.66,8.92 -0.31,12.43 l 16.71,17.55 c 3.36,3.52 8.93,3.65 12.44,0.3 l 23.92,-22.77 c 3.52,-3.35 3.65,-8.92 0.3,-12.44"
         style="fill:#2a62a3;fill-opacity:1;fill-rule:nonzero;stroke:none"
         id="path296" /><path
         d="m 4306.43,3179.89 -16.61,-17.43 c -2.27,-2.39 -6.06,-2.48 -8.45,-0.2 l -22.91,21.82 c -2.4,2.28 -2.48,6.06 -0.21,8.45 l 16.6,17.44 c 2.28,2.38 6.07,2.48 8.46,0.2 l 22.91,-21.83 c 2.39,-2.27 2.48,-6.06 0.21,-8.45"
         style="fill:#3676c4;fill-opacity:1;fill-rule:nonzero;stroke:none"
         id="path298" /><path
         d="m 4348.93,3219.43 -16.71,-17.55 c -3.35,-3.52 -8.92,-3.65 -12.43,-0.3 l -23.93,22.78 c -3.52,3.35 -3.65,8.91 -0.3,12.43 l 16.72,17.55 c 3.35,3.52 8.91,3.65 12.43,0.3 l 23.91,-22.77 c 3.52,-3.35 3.66,-8.92 0.31,-12.44"
         style="fill:#2a62a3;fill-opacity:1;fill-rule:nonzero;stroke:none"
         id="path300" /><path
         d="m 4346.33,3221.79 -16.59,-17.43 c -2.29,-2.39 -6.07,-2.49 -8.46,-0.2 l -22.92,21.82 c -2.39,2.28 -2.48,6.06 -0.21,8.45 l 16.61,17.43 c 2.27,2.39 6.06,2.49 8.45,0.21 l 22.91,-21.83 c 2.4,-2.27 2.49,-6.06 0.21,-8.45"
         style="fill:#3676c4;fill-opacity:1;fill-rule:nonzero;stroke:none"
         id="path302" /><path
         d="m 4191.86,3365.05 c 3.68,3.93 3.58,10.08 -0.21,13.88 l 2.77,-2.64 c 2.37,-2.24 2.45,-5.97 0.21,-8.33 l -2.77,-2.91 m -29.37,41.66 c -1.9,1.72 -4.3,2.57 -6.7,2.57 -1.57,0 -3.15,-0.37 -4.58,-1.11 l 0.61,1.27 c 1.12,0.99 2.53,1.49 3.93,1.49 1.43,0 2.85,-0.52 3.97,-1.58 l 2.77,-2.64"
         style="fill:#c4e6e8;fill-opacity:1;fill-rule:nonzero;stroke:none"
         id="path304" /><path
         d="m 4068.83,3235.88 4.05,8.48 115.84,121.62 c 2.95,3.1 2.83,8.01 -0.27,10.97 l -27.79,26.46 c -1.5,1.43 -3.42,2.14 -5.34,2.14 -2.05,0 -4.1,-0.81 -5.62,-2.41 l -1.8,-1.88 3.31,6.91 c 1.43,0.74 3.01,1.11 4.58,1.11 2.4,0 4.8,-0.85 6.7,-2.57 l 29.16,-27.78 c 3.79,-3.8 3.89,-9.95 0.21,-13.88 l -123.03,-129.17"
         style="fill:#234162;fill-opacity:1;fill-rule:nonzero;stroke:none"
         id="path306" /><path
         d="m 4072.88,3244.36 75.02,156.9 1.8,1.88 c 1.52,1.6 3.57,2.41 5.62,2.41 1.92,0 3.84,-0.71 5.34,-2.14 l 27.79,-26.46 c 3.1,-2.96 3.22,-7.87 0.27,-10.97 l -115.84,-121.62"
         style="fill:#284f78;fill-opacity:1;fill-rule:nonzero;stroke:none"
         id="path308" /><path
         d="m 827.211,3344.51 c 0,-35.7 28.941,-64.64 64.637,-64.64 35.695,0 64.632,28.94 64.632,64.64 0,35.7 -28.937,64.63 -64.632,64.63 -35.696,0 -64.637,-28.93 -64.637,-64.63"
         style="fill:#aa1c22;fill-opacity:1;fill-rule:nonzero;stroke:none"
         id="path310" /><path
         d="m 835.574,3357.03 c 0,-27.55 22.332,-49.88 49.879,-49.88 27.543,0 49.879,22.33 49.879,49.88 0,27.55 -22.336,49.88 -49.879,49.88 -27.547,0 -49.879,-22.33 -49.879,-49.88"
         style="fill:#d91e25;fill-opacity:1;fill-rule:nonzero;stroke:none"
         id="path312" /><path
         d="m 844.121,3371.98 c 3.242,-3.76 13.176,-0.5 22.18,7.29 9.008,7.78 13.679,17.12 10.437,20.88 -3.242,3.75 -13.175,0.49 -22.175,-7.29 -9.012,-7.78 -13.684,-17.13 -10.442,-20.88"
         style="fill:#f25b1a;fill-opacity:1;fill-rule:nonzero;stroke:none"
         id="path314" /><path
         d="m 809.512,3373.21 -6.864,2.43 c -23.054,-64.97 -34.5,-127.55 -34.511,-178.09 0.015,-28.33 3.57,-52.89 11.051,-72.23 3.753,-9.67 8.507,-18.05 14.457,-24.84 5.929,-6.78 13.117,-11.94 21.371,-14.86 5.265,-1.87 10.789,-2.78 16.394,-2.77 15.246,0.03 30.883,6.45 46.516,17.4 23.453,16.48 47.281,43.5 69.652,78.22 22.344,34.72 43.137,77.15 59.932,124.44 23.05,64.97 34.5,127.55 34.51,178.09 -0.02,28.33 -3.57,52.89 -11.05,72.23 -3.76,9.67 -8.51,18.05 -14.46,24.84 -5.93,6.78 -13.12,11.94 -21.373,14.86 -5.266,1.87 -10.789,2.78 -16.395,2.77 -15.246,-0.03 -30.879,-6.45 -46.515,-17.4 -23.45,-16.48 -47.278,-43.5 -69.649,-78.22 -22.344,-34.71 -43.137,-77.14 -59.93,-124.44 l 6.864,-2.43 6.863,-2.44 c 21.906,61.73 50.832,114.93 80.418,152.32 14.777,18.7 29.723,33.42 43.801,43.29 14.086,9.91 27.179,14.79 38.148,14.76 4.067,0 7.875,-0.64 11.52,-1.93 5.695,-2.03 10.728,-5.55 15.298,-10.75 6.83,-7.76 12.42,-19.39 16.17,-34.27 3.77,-14.86 5.73,-32.88 5.72,-53.19 0.02,-48.37 -11.08,-109.63 -33.669,-173.22 -21.906,-61.73 -50.832,-114.93 -80.418,-152.32 -14.777,-18.7 -29.726,-33.42 -43.8,-43.29 -14.09,-9.91 -27.18,-14.79 -38.153,-14.76 -4.066,0 -7.875,0.64 -11.523,1.93 -5.692,2.03 -10.727,5.55 -15.293,10.74 -6.828,7.77 -12.414,19.4 -16.168,34.27 -3.766,14.86 -5.727,32.89 -5.723,53.2 -0.015,48.36 11.082,109.63 33.672,173.22 l -6.863,2.44"
         style="fill:#7dcfbd;fill-opacity:1;fill-rule:nonzero;stroke:none"
         id="path316" /><path
         d="m 808.816,3275.28 -5.648,-4.6 c 37.375,-45.93 77.715,-83.62 115.691,-110 38.036,-26.31 73.5,-41.62 102.621,-41.74 13.62,-0.02 26.09,3.56 35.87,11.53 7.16,5.81 12.36,13.57 15.67,22.51 3.32,8.96 4.82,19.12 4.83,30.23 -0.04,28.81 -10.05,64.32 -28.19,103.09 -18.17,38.74 -44.57,80.64 -77.859,121.57 -37.371,45.93 -77.711,83.62 -115.692,110 -38.035,26.32 -73.5,41.62 -102.621,41.74 -13.621,0.03 -26.093,-3.56 -35.867,-11.53 -7.156,-5.81 -12.363,-13.57 -15.672,-22.51 -3.316,-8.96 -4.82,-19.12 -4.824,-30.23 0.039,-28.81 10.047,-64.32 28.188,-103.09 18.164,-38.74 44.57,-80.64 77.855,-121.57 l 5.648,4.6 5.653,4.59 c -32.594,40.07 -58.399,81.08 -75.969,118.56 -17.594,37.46 -26.852,71.49 -26.812,96.91 0,9.79 1.355,18.26 3.917,25.16 2.579,6.92 6.278,12.26 11.208,16.28 6.714,5.45 15.472,8.24 26.675,8.27 23.864,0.12 57.754,-13.65 94.317,-39.14 36.617,-25.42 76.117,-62.26 112.699,-107.23 32.594,-40.07 58.396,-81.08 75.966,-118.56 17.6,-37.46 26.85,-71.49 26.81,-96.91 0,-9.79 -1.35,-18.26 -3.92,-25.16 -2.57,-6.92 -6.27,-12.26 -11.2,-16.28 -6.72,-5.45 -15.47,-8.24 -26.68,-8.26 -23.863,-0.12 -57.753,13.65 -94.312,39.13 -36.621,25.43 -76.121,62.26 -112.699,107.23 l -5.653,-4.59"
         style="fill:#7dcfbd;fill-opacity:1;fill-rule:nonzero;stroke:none"
         id="path318" /><path
         d="m 893.563,3238.05 0.437,-7.27 c 71.914,4.33 136.46,19.31 183.62,40.47 23.58,10.6 42.84,22.73 56.57,36.24 13.67,13.46 22.05,28.72 22.07,45.08 0,0.95 -0.03,1.89 -0.09,2.84 -0.9,15.04 -8.93,28.56 -21.47,39.87 -18.89,17.01 -48.24,30.16 -84.8,39.41 -36.57,9.2 -80.384,14.32 -128.025,14.33 -13.363,0 -27.023,-0.41 -40.906,-1.24 -71.914,-4.34 -136.461,-19.32 -183.617,-40.47 -23.582,-10.61 -42.848,-22.74 -56.575,-36.25 -13.664,-13.45 -22.047,-28.72 -22.062,-45.08 0,-0.95 0.027,-1.89 0.086,-2.84 v 0 c 0.894,-15.04 8.926,-28.56 21.469,-39.86 18.886,-17.02 48.238,-30.17 84.804,-39.41 36.563,-9.2 80.379,-14.33 128.024,-14.33 13.359,0 27.019,0.4 40.902,1.24 l -0.437,7.27 -0.434,7.27 c -13.594,-0.82 -26.965,-1.22 -40.031,-1.22 -62.114,-0.01 -117.414,9 -156.918,23.94 -19.746,7.45 -35.504,16.4 -46.137,26.04 -10.68,9.7 -16.082,19.68 -16.703,29.93 l -0.059,1.97 c -0.019,11.13 5.739,22.87 17.727,34.71 17.883,17.71 49.242,34.54 89.281,47.39 40.039,12.9 88.754,21.99 141.555,25.16 13.594,0.81 26.961,1.21 40.031,1.21 62.109,0.02 117.415,-8.99 156.915,-23.94 19.75,-7.44 35.5,-16.39 46.14,-26.04 10.68,-9.7 16.08,-19.68 16.7,-29.93 l 0.06,-1.97 c 0.02,-11.13 -5.74,-22.87 -17.73,-34.71 -17.88,-17.7 -49.24,-34.54 -89.28,-47.39 -40.039,-12.9 -88.75,-21.99 -141.551,-25.15 l 0.434,-7.27"
         style="fill:#7dcfbd;fill-opacity:1;fill-rule:nonzero;stroke:none"
         id="path320" /><path
         d="m 697.973,3558.81 c -18.575,-12.28 -23.68,-37.29 -11.403,-55.87 12.282,-18.57 37.293,-23.68 55.871,-11.4 18.575,12.28 23.676,37.29 11.403,55.87 -12.281,18.58 -37.297,23.68 -55.871,11.4"
         style="fill:#3ba2a2;fill-opacity:1;fill-rule:nonzero;stroke:none"
         id="path322" /><path
         d="m 707.367,3558.77 c -14.336,-9.48 -18.273,-28.78 -8.797,-43.12 9.477,-14.33 28.778,-18.27 43.114,-8.79 14.332,9.47 18.273,28.77 8.8,43.11 -9.476,14.33 -28.781,18.27 -43.117,8.8"
         style="fill:#44bec0;fill-opacity:1;fill-rule:nonzero;stroke:none"
         id="path324" /><path
         d="m 718.086,3559.46 c -0.84,-2.98 4.277,-7.02 11.422,-9.04 7.148,-2 13.617,-1.22 14.457,1.76 0.84,2.98 -4.277,7.02 -11.422,9.03 -7.148,2.01 -13.617,1.23 -14.457,-1.75"
         style="fill:#7dcfbd;fill-opacity:1;fill-rule:nonzero;stroke:none"
         id="path326" /><path
         d="m 1117.52,3394.97 c -18.57,-12.28 -23.68,-37.29 -11.4,-55.87 12.28,-18.58 37.29,-23.68 55.87,-11.4 18.57,12.28 23.67,37.29 11.4,55.86 -12.28,18.58 -37.29,23.68 -55.87,11.41"
         style="fill:#3ba2a2;fill-opacity:1;fill-rule:nonzero;stroke:none"
         id="path328" /><path
         d="m 1126.91,3394.92 c -14.33,-9.48 -18.27,-28.78 -8.79,-43.11 9.47,-14.33 28.77,-18.27 43.11,-8.8 14.34,9.48 18.27,28.78 8.8,43.11 -9.48,14.34 -28.78,18.28 -43.12,8.8"
         style="fill:#44bec0;fill-opacity:1;fill-rule:nonzero;stroke:none"
         id="path330" /><path
         d="m 1137.63,3395.62 c -0.84,-2.98 4.28,-7.03 11.42,-9.04 7.15,-2.01 13.62,-1.23 14.46,1.75 0.84,2.98 -4.28,7.03 -11.42,9.04 -7.15,2.01 -13.62,1.22 -14.46,-1.75"
         style="fill:#7dcfbd;fill-opacity:1;fill-rule:nonzero;stroke:none"
         id="path332" /><path
         d="m 782.383,3146.71 c -18.578,-12.28 -23.684,-37.29 -11.403,-55.87 12.278,-18.57 37.286,-23.68 55.868,-11.4 18.574,12.28 23.675,37.29 11.398,55.87 -12.277,18.58 -37.289,23.68 -55.863,11.4"
         style="fill:#3ba2a2;fill-opacity:1;fill-rule:nonzero;stroke:none"
         id="path334" /><path
         d="m 791.773,3146.67 c -14.335,-9.48 -18.273,-28.78 -8.8,-43.12 9.476,-14.33 28.781,-18.27 43.117,-8.79 14.336,9.47 18.273,28.78 8.797,43.11 -9.477,14.34 -28.778,18.27 -43.114,8.8"
         style="fill:#44bec0;fill-opacity:1;fill-rule:nonzero;stroke:none"
         id="path336" /><path
         d="m 802.488,3147.36 c -0.832,-2.98 4.282,-7.02 11.422,-9.03 7.149,-2.01 13.625,-1.23 14.457,1.75 0.844,2.98 -4.269,7.02 -11.418,9.03 -7.144,2.01 -13.621,1.23 -14.461,-1.75"
         style="fill:#7dcfbd;fill-opacity:1;fill-rule:nonzero;stroke:none"
         id="path338" /><path
         d="m 1276.69,2949.3 51.8,31.66 c 2.31,1.41 3.04,4.42 1.63,6.73 l -22.24,36.39 c -1.41,2.3 -4.42,3.03 -6.73,1.62 l -51.8,-31.66 c -2.31,-1.41 -3.04,-4.42 -1.63,-6.73 l 22.24,-36.39 c 1.41,-2.3 4.42,-3.03 6.73,-1.62"
         style="fill:#1d4e53;fill-opacity:1;fill-rule:nonzero;stroke:none"
         id="path340" /><path
         d="m 1327.17,2837.67 -74.65,122.14 78.95,48.25 74.65,-122.15 c 101.3,36.79 217.83,-1.42 276.2,-96.95 66.63,-109.03 32.26,-251.45 -76.78,-318.09 -109.04,-66.63 -251.45,-32.26 -318.09,76.78 -58.38,95.52 -39.23,216.65 39.72,290.02"
         style="fill:#bae4f8;fill-opacity:1;fill-rule:nonzero;stroke:none"
         id="path342" /><path
         d="m 1348.2,2981.01 -79.09,-48.33 -16.59,27.13 79.1,48.33 16.58,-27.13"
         style="fill:#97d9f5;fill-opacity:1;fill-rule:nonzero;stroke:none"
         id="path344" /><path
         d="m 1241.33,2938.97 113.8,69.54 c 5.36,3.28 7.05,10.28 3.77,15.65 l -2.03,3.33 c -3.28,5.36 -10.29,7.06 -15.65,3.77 l -113.8,-69.54 c -5.36,-3.27 -7.05,-10.28 -3.77,-15.65 l 2.03,-3.33 c 3.28,-5.36 10.29,-7.05 15.65,-3.77"
         style="fill:#bae4f8;fill-opacity:1;fill-rule:nonzero;stroke:none"
         id="path346" /><path
         d="m 1511.27,2664.6 c 27.16,24.19 43.84,58.23 70.22,83.27 20.76,19.71 47.38,32.95 75.46,38.37 2.06,-3.01 4.24,-5.87 6.16,-9.02 60.15,-98.43 29.12,-226.98 -69.31,-287.13 -98.43,-60.16 -226.98,-29.12 -287.14,69.3 -9.03,14.79 -15.77,30.3 -20.77,46.11 28.3,9.04 58.63,9.5 88.32,11.81 49.07,3.84 100.32,14.55 137.06,47.29"
         style="fill:#4bc0c0;fill-opacity:1;fill-rule:nonzero;stroke:none"
         id="path348" /><g
         id="g350"><g
           id="g352"
           clip-path="url(#clipPath356)"><path
             d="m 1251.31,2448.49 h 423.563 v 353.98 H 1251.31 Z"
             style="fill:#79beeb;fill-opacity:1;fill-rule:nonzero;stroke:none"
             id="path358" /></g></g><path
         d="m 1485.08,2459.41 c -70.36,0 -139.04,35.55 -178.42,99.98 -9.03,14.79 -15.77,30.3 -20.77,46.11 6.47,2.06 13.05,3.68 19.69,4.98 4.16,-9.82 9.09,-19.45 14.82,-28.82 40.96,-67.03 112.44,-104.03 185.64,-104.03 38.63,0 77.74,10.3 113.11,31.92 1.82,1.11 3.62,2.25 5.39,3.4 -9.36,-8.4 -19.62,-16.07 -30.74,-22.86 -34,-20.78 -71.59,-30.68 -108.72,-30.68"
         style="fill:#419bb8;fill-opacity:1;fill-rule:nonzero;stroke:none"
         id="path360" /><path
         d="m 1575.57,2655.63 c 3.47,-5.68 10.89,-7.47 16.57,-3.99 5.69,3.47 7.47,10.89 4,16.57 -3.47,5.68 -10.89,7.47 -16.57,4 -5.68,-3.47 -7.48,-10.89 -4,-16.58"
         style="fill:#296c7a;fill-opacity:1;fill-rule:nonzero;stroke:none"
         id="path362" /><path
         d="m 1555.85,2610.65 c 0.87,-1.41 2.72,-1.86 4.14,-0.99 1.42,0.86 1.87,2.72 1,4.13 -0.87,1.42 -2.72,1.87 -4.14,1 -1.42,-0.86 -1.86,-2.71 -1,-4.14"
         style="fill:#296c7a;fill-opacity:1;fill-rule:nonzero;stroke:none"
         id="path364" /><path
         d="m 1494.85,2615.69 c 1.49,-2.43 4.66,-3.2 7.09,-1.72 2.43,1.49 3.2,4.67 1.71,7.1 -1.48,2.43 -4.66,3.19 -7.09,1.71 -2.43,-1.49 -3.2,-4.66 -1.71,-7.09"
         style="fill:#296c7a;fill-opacity:1;fill-rule:nonzero;stroke:none"
         id="path366" /><path
         d="m 1565.14,2537.75 c 2.36,-3.84 7.38,-5.05 11.23,-2.71 3.85,2.36 5.06,7.38 2.71,11.23 -2.35,3.85 -7.38,5.06 -11.22,2.71 -3.86,-2.35 -5.07,-7.38 -2.72,-11.23"
         style="fill:#296c7a;fill-opacity:1;fill-rule:nonzero;stroke:none"
         id="path368" /><path
         d="m 1427.25,2535.08 c 4.83,-7.89 15.14,-10.38 23.04,-5.56 7.9,4.83 10.39,15.15 5.56,23.05 -4.82,7.89 -15.14,10.39 -23.04,5.56 -7.9,-4.83 -10.39,-15.15 -5.56,-23.05"
         style="fill:#296c7a;fill-opacity:1;fill-rule:nonzero;stroke:none"
         id="path370" /><path
         d="m 1507.54,2541.34 c 4.34,-7.09 13.6,-9.32 20.69,-4.99 7.08,4.33 9.32,13.59 4.99,20.68 -4.33,7.09 -13.6,9.32 -20.68,4.99 -7.09,-4.33 -9.33,-13.59 -5,-20.68"
         style="fill:#296c7a;fill-opacity:1;fill-rule:nonzero;stroke:none"
         id="path372" /><path
         d="m 1600.23,2592.44 c 10.64,-17.42 33.39,-22.91 50.81,-12.26 17.42,10.64 22.92,33.39 12.27,50.81 -10.64,17.42 -33.4,22.91 -50.81,12.27 -17.43,-10.65 -22.92,-33.4 -12.27,-50.82"
         style="fill:#296c7a;fill-opacity:1;fill-rule:nonzero;stroke:none"
         id="path374" /><path
         d="m 1641.74,3205 -204.94,-49.1 c -14.23,-3.41 -28.52,5.36 -31.93,19.58 l -61.57,257.03 c -3.41,14.22 5.35,28.52 19.58,31.92 l 204.95,49.11 c 14.22,3.4 28.51,-5.37 31.92,-19.59 l 61.58,-257.03 c 3.41,-14.22 -5.36,-28.51 -19.59,-31.92"
         style="fill:#97c7d0;fill-opacity:1;fill-rule:nonzero;stroke:none"
         id="path376" /><path
         d="m 1634.67,3207.32 -204.94,-49.1 c -14.23,-3.41 -28.52,5.35 -31.93,19.58 l -61.58,257.02 c -3.4,14.23 5.36,28.52 19.59,31.93 l 204.95,49.1 c 14.22,3.41 28.51,-5.36 31.92,-19.59 l 61.58,-257.02 c 3.41,-14.22 -5.36,-28.52 -19.59,-31.92"
         style="fill:#c4e6e8;fill-opacity:1;fill-rule:nonzero;stroke:none"
         id="path378" /><path
         d="m 1383.49,3387.85 188.34,45.12 c 5.37,1.29 8.67,6.68 7.39,12.04 l -9.26,38.65 c -1.29,5.36 -6.68,8.67 -12.04,7.38 l -188.34,-45.12 c -5.37,-1.28 -8.68,-6.67 -7.39,-12.04 l 9.26,-38.64 c 1.28,-5.37 6.68,-8.67 12.04,-7.39"
         style="fill:#193150;fill-opacity:1;fill-rule:nonzero;stroke:none"
         id="path380" /><path
         d="m 1384.18,3391.02 185.6,44.46 c 4.16,1 6.73,5.18 5.73,9.35 l -8.94,37.31 c -0.99,4.17 -5.18,6.74 -9.35,5.74 l -185.59,-44.46 c -4.16,-1 -6.73,-5.19 -5.74,-9.35 l 8.94,-37.32 c 1,-4.16 5.19,-6.73 9.35,-5.73"
         style="fill:#1d4069;fill-opacity:1;fill-rule:nonzero;stroke:none"
         id="path382" /><path
         d="m 1568.17,3349.36 23.57,5.64 c 4.72,1.14 7.64,5.88 6.5,10.61 l -7.69,32.12 c -1.14,4.72 -5.88,7.64 -10.6,6.5 l -23.57,-5.65 c -4.73,-1.12 -7.64,-5.87 -6.51,-10.6 l 7.7,-32.12 c 1.13,-4.72 5.88,-7.63 10.6,-6.5"
         style="fill:#2a62a3;fill-opacity:1;fill-rule:nonzero;stroke:none"
         id="path384" /><path
         d="m 1567.43,3352.79 23.41,5.61 c 3.21,0.77 5.2,3.99 4.42,7.21 l -7.37,30.77 c -0.77,3.21 -4,5.19 -7.21,4.43 l -23.4,-5.61 c -3.22,-0.78 -5.2,-4 -4.43,-7.22 l 7.37,-30.77 c 0.78,-3.21 4,-5.19 7.21,-4.42"
         style="fill:#3676c4;fill-opacity:1;fill-rule:nonzero;stroke:none"
         id="path386" /><path
         d="m 1511.9,3335.88 23.57,5.64 c 4.72,1.14 7.64,5.88 6.5,10.61 l -7.69,32.12 c -1.14,4.72 -5.88,7.63 -10.6,6.5 l -23.57,-5.65 c -4.73,-1.13 -7.64,-5.87 -6.51,-10.6 l 7.7,-32.12 c 1.13,-4.72 5.88,-7.63 10.6,-6.5"
         style="fill:#2a62a3;fill-opacity:1;fill-rule:nonzero;stroke:none"
         id="path388" /><path
         d="m 1511.16,3339.31 23.41,5.61 c 3.21,0.76 5.19,3.99 4.42,7.2 l -7.37,30.78 c -0.77,3.21 -4,5.19 -7.21,4.42 l -23.4,-5.61 c -3.22,-0.77 -5.2,-4 -4.43,-7.21 l 7.38,-30.77 c 0.77,-3.21 3.99,-5.19 7.2,-4.42"
         style="fill:#3676c4;fill-opacity:1;fill-rule:nonzero;stroke:none"
         id="path390" /><path
         d="m 1455.63,3322.4 23.57,5.64 c 4.72,1.13 7.64,5.88 6.5,10.61 l -7.69,32.12 c -1.13,4.72 -5.88,7.63 -10.6,6.5 l -23.57,-5.65 c -4.73,-1.13 -7.64,-5.87 -6.51,-10.6 l 7.7,-32.12 c 1.13,-4.73 5.88,-7.64 10.6,-6.5"
         style="fill:#2a62a3;fill-opacity:1;fill-rule:nonzero;stroke:none"
         id="path392" /><path
         d="m 1454.89,3325.83 23.41,5.61 c 3.21,0.76 5.19,3.99 4.42,7.2 l -7.37,30.78 c -0.77,3.21 -4,5.19 -7.21,4.42 l -23.4,-5.61 c -3.22,-0.77 -5.2,-4 -4.43,-7.2 l 7.38,-30.78 c 0.76,-3.21 3.99,-5.19 7.2,-4.42"
         style="fill:#3676c4;fill-opacity:1;fill-rule:nonzero;stroke:none"
         id="path394" /><path
         d="m 1399.36,3308.92 23.57,5.64 c 4.73,1.13 7.64,5.88 6.5,10.61 l -7.69,32.12 c -1.13,4.72 -5.88,7.63 -10.61,6.5 l -23.56,-5.65 c -4.73,-1.13 -7.64,-5.87 -6.51,-10.6 l 7.7,-32.12 c 1.13,-4.72 5.88,-7.64 10.6,-6.5"
         style="fill:#2a62a3;fill-opacity:1;fill-rule:nonzero;stroke:none"
         id="path396" /><path
         d="m 1398.62,3312.34 23.41,5.61 c 3.21,0.77 5.2,4 4.43,7.21 l -7.38,30.78 c -0.77,3.21 -4,5.19 -7.21,4.42 l -23.4,-5.61 c -3.22,-0.77 -5.2,-3.99 -4.43,-7.21 l 7.38,-30.77 c 0.76,-3.22 3.99,-5.19 7.2,-4.43"
         style="fill:#3676c4;fill-opacity:1;fill-rule:nonzero;stroke:none"
         id="path398" /><path
         d="m 1583.75,3284.35 23.56,5.64 c 4.73,1.13 7.64,5.88 6.51,10.61 l -7.7,32.11 c -1.13,4.73 -5.88,7.64 -10.6,6.51 l -23.57,-5.65 c -4.72,-1.13 -7.63,-5.87 -6.5,-10.6 l 7.69,-32.12 c 1.14,-4.73 5.88,-7.64 10.61,-6.5"
         style="fill:#2a62a3;fill-opacity:1;fill-rule:nonzero;stroke:none"
         id="path400" /><path
         d="m 1583.01,3287.77 23.41,5.61 c 3.21,0.77 5.19,4 4.42,7.21 l -7.37,30.78 c -0.77,3.21 -4,5.19 -7.21,4.42 l -23.41,-5.61 c -3.21,-0.77 -5.19,-4 -4.42,-7.21 l 7.37,-30.77 c 0.77,-3.22 4,-5.19 7.21,-4.43"
         style="fill:#3676c4;fill-opacity:1;fill-rule:nonzero;stroke:none"
         id="path402" /><path
         d="m 1527.48,3270.86 23.56,5.65 c 4.73,1.13 7.64,5.88 6.51,10.6 l -7.7,32.12 c -1.13,4.73 -5.88,7.64 -10.6,6.51 l -23.57,-5.65 c -4.72,-1.13 -7.63,-5.88 -6.5,-10.6 l 7.7,-32.12 c 1.13,-4.73 5.87,-7.64 10.6,-6.51"
         style="fill:#2a62a3;fill-opacity:1;fill-rule:nonzero;stroke:none"
         id="path404" /><path
         d="m 1526.74,3274.29 23.41,5.61 c 3.21,0.77 5.19,4 4.42,7.21 l -7.37,30.78 c -0.77,3.21 -4,5.19 -7.21,4.42 l -23.41,-5.61 c -3.21,-0.77 -5.19,-4 -4.42,-7.21 l 7.37,-30.77 c 0.77,-3.22 4,-5.19 7.21,-4.43"
         style="fill:#3676c4;fill-opacity:1;fill-rule:nonzero;stroke:none"
         id="path406" /><path
         d="m 1471.21,3257.38 23.57,5.65 c 4.72,1.13 7.63,5.88 6.5,10.6 l -7.7,32.12 c -1.13,4.72 -5.87,7.64 -10.6,6.51 l -23.57,-5.65 c -4.72,-1.13 -7.63,-5.88 -6.5,-10.6 l 7.7,-32.12 c 1.12,-4.72 5.87,-7.64 10.6,-6.51"
         style="fill:#2a62a3;fill-opacity:1;fill-rule:nonzero;stroke:none"
         id="path408" /><path
         d="m 1470.47,3260.81 23.41,5.61 c 3.21,0.77 5.19,4 4.42,7.21 l -7.37,30.77 c -0.77,3.22 -4,5.19 -7.21,4.43 l -23.41,-5.61 c -3.21,-0.77 -5.19,-4 -4.42,-7.21 l 7.37,-30.78 c 0.77,-3.21 4,-5.19 7.21,-4.42"
         style="fill:#3676c4;fill-opacity:1;fill-rule:nonzero;stroke:none"
         id="path410" /><path
         d="m 1414.94,3243.9 23.57,5.65 c 4.72,1.13 7.63,5.87 6.5,10.6 l -7.7,32.12 c -1.13,4.72 -5.87,7.64 -10.6,6.5 l -23.57,-5.64 c -4.72,-1.13 -7.63,-5.88 -6.5,-10.61 l 7.7,-32.11 c 1.13,-4.73 5.87,-7.64 10.6,-6.51"
         style="fill:#2a62a3;fill-opacity:1;fill-rule:nonzero;stroke:none"
         id="path412" /><path
         d="m 1414.2,3247.33 23.41,5.61 c 3.21,0.77 5.19,4 4.42,7.21 l -7.37,30.77 c -0.77,3.22 -4,5.19 -7.21,4.43 l -23.41,-5.61 c -3.21,-0.77 -5.19,-4 -4.42,-7.21 l 7.37,-30.78 c 0.77,-3.21 4,-5.19 7.21,-4.42"
         style="fill:#3676c4;fill-opacity:1;fill-rule:nonzero;stroke:none"
         id="path414" /><path
         d="m 1599.32,3219.33 23.57,5.65 c 4.73,1.13 7.64,5.87 6.5,10.6 l -7.69,32.12 c -1.13,4.72 -5.88,7.64 -10.6,6.5 l -23.57,-5.65 c -4.73,-1.12 -7.64,-5.87 -6.5,-10.6 l 7.69,-32.12 c 1.13,-4.72 5.88,-7.63 10.6,-6.5"
         style="fill:#2a62a3;fill-opacity:1;fill-rule:nonzero;stroke:none"
         id="path416" /><path
         d="m 1598.58,3222.76 23.41,5.61 c 3.22,0.77 5.2,3.99 4.43,7.21 l -7.38,30.77 c -0.77,3.22 -4,5.19 -7.21,4.43 l -23.4,-5.61 c -3.22,-0.77 -5.2,-4 -4.43,-7.21 l 7.38,-30.78 c 0.77,-3.21 4,-5.19 7.2,-4.42"
         style="fill:#3676c4;fill-opacity:1;fill-rule:nonzero;stroke:none"
         id="path418" /><path
         d="m 1543.05,3205.85 23.57,5.64 c 4.72,1.14 7.64,5.88 6.51,10.61 l -7.7,32.12 c -1.13,4.73 -5.88,7.64 -10.6,6.5 l -23.57,-5.64 c -4.73,-1.13 -7.64,-5.88 -6.5,-10.61 l 7.69,-32.12 c 1.13,-4.72 5.88,-7.63 10.6,-6.5"
         style="fill:#2a62a3;fill-opacity:1;fill-rule:nonzero;stroke:none"
         id="path420" /><path
         d="m 1542.32,3209.28 23.4,5.61 c 3.22,0.76 5.19,3.99 4.43,7.2 l -7.38,30.78 c -0.77,3.21 -4,5.19 -7.21,4.42 l -23.4,-5.61 c -3.21,-0.76 -5.2,-3.99 -4.43,-7.2 l 7.38,-30.78 c 0.77,-3.21 4,-5.19 7.21,-4.42"
         style="fill:#3676c4;fill-opacity:1;fill-rule:nonzero;stroke:none"
         id="path422" /><path
         d="m 1486.78,3192.37 23.57,5.65 c 4.72,1.13 7.64,5.87 6.51,10.6 l -7.7,32.12 c -1.13,4.72 -5.88,7.63 -10.6,6.5 l -23.57,-5.64 c -4.73,-1.14 -7.64,-5.88 -6.5,-10.61 l 7.69,-32.12 c 1.13,-4.72 5.88,-7.63 10.6,-6.5"
         style="fill:#2a62a3;fill-opacity:1;fill-rule:nonzero;stroke:none"
         id="path424" /><path
         d="m 1486.04,3195.8 23.41,5.61 c 3.22,0.76 5.19,4 4.43,7.21 l -7.38,30.77 c -0.77,3.21 -4,5.19 -7.2,4.42 l -23.42,-5.61 c -3.2,-0.76 -5.19,-3.99 -4.42,-7.2 l 7.38,-30.78 c 0.76,-3.21 3.99,-5.19 7.2,-4.42"
         style="fill:#3676c4;fill-opacity:1;fill-rule:nonzero;stroke:none"
         id="path426" /><path
         d="m 1430.51,3178.89 23.57,5.65 c 4.72,1.12 7.64,5.88 6.51,10.6 l -7.7,32.12 c -1.13,4.72 -5.88,7.63 -10.6,6.5 l -23.57,-5.64 c -4.73,-1.14 -7.64,-5.88 -6.5,-10.61 l 7.69,-32.12 c 1.13,-4.72 5.88,-7.64 10.6,-6.5"
         style="fill:#2a62a3;fill-opacity:1;fill-rule:nonzero;stroke:none"
         id="path428" /><path
         d="m 1429.78,3182.31 23.4,5.61 c 3.22,0.78 5.2,4 4.43,7.22 l -7.38,30.77 c -0.77,3.21 -3.99,5.19 -7.21,4.42 l -23.41,-5.61 c -3.2,-0.76 -5.19,-3.99 -4.41,-7.21 l 7.37,-30.77 c 0.76,-3.21 3.99,-5.19 7.21,-4.43"
         style="fill:#3676c4;fill-opacity:1;fill-rule:nonzero;stroke:none"
         id="path430" /><path
         d="m 1378.13,3386.73 c -2.67,0 -5.08,1.82 -5.73,4.52 l -8.39,35.02 7.44,-31.03 c 1.09,-4.58 5.19,-7.66 9.71,-7.66 0.77,0 1.55,0.09 2.33,0.27 l 129.69,31.07 -133.67,-32.03 c -0.46,-0.11 -0.93,-0.16 -1.38,-0.16 m -15.96,47.24 -0.94,3.89 c -0.71,2.99 1.03,5.92 3.89,6.89 l 1.41,-0.11 c -3.47,-2.21 -5.33,-6.44 -4.36,-10.67"
         style="fill:#c4e6e8;fill-opacity:1;fill-rule:nonzero;stroke:none"
         id="path432" /><path
         d="m 1381.16,3387.58 c -4.52,0 -8.62,3.08 -9.71,7.66 l -7.44,31.03 -1.84,7.7 c -0.97,4.23 0.89,8.46 4.36,10.67 l 7.64,-0.61 -2.54,-0.61 c -4.16,-1 -6.73,-5.19 -5.74,-9.35 l 8.94,-37.32 c 0.85,-3.56 4.04,-5.95 7.54,-5.95 0.6,0 1.21,0.07 1.81,0.22 l 163.34,39.13 9.37,-0.76 -43.71,-10.47 -129.69,-31.07 c -0.78,-0.18 -1.56,-0.27 -2.33,-0.27"
         style="fill:#234162;fill-opacity:1;fill-rule:nonzero;stroke:none"
         id="path434" /><path
         d="m 1382.37,3390.8 c -3.5,0 -6.69,2.39 -7.54,5.95 l -8.94,37.32 c -0.99,4.16 1.58,8.35 5.74,9.35 l 2.54,0.61 173.35,-13.88 -163.34,-39.13 c -0.6,-0.15 -1.21,-0.22 -1.81,-0.22"
         style="fill:#284f78;fill-opacity:1;fill-rule:nonzero;stroke:none"
         id="path436" /><path
         d="m 1596.11,4378.07 c -24.19,16.05 -56.93,9.43 -72.98,-14.76 -16.05,-24.19 -9.43,-56.93 14.76,-72.98 24.19,-16.05 56.93,-9.43 72.98,14.76 16.05,24.19 9.43,56.93 -14.76,72.98 z m -69.29,-104.43 c -33.39,22.16 -42.53,67.35 -20.37,100.74 22.15,33.39 67.34,42.53 100.73,20.38 33.39,-22.16 42.53,-67.35 20.37,-100.74 -22.15,-33.39 -67.34,-42.53 -100.73,-20.38"
         style="fill:#24578e;fill-opacity:1;fill-rule:nonzero;stroke:none"
         id="path438" /><path
         d="m 1573.35,4343.45 c -103.3,68.54 -242.6,40.36 -311.14,-62.93 l -160.94,-242.55 374.08,-248.21 160.93,242.55 c 68.54,103.3 40.37,242.6 -62.93,311.14"
         style="fill:#c4e6e8;fill-opacity:1;fill-rule:nonzero;stroke:none"
         id="path440" /><path
         d="m 1101.27,4037.97 -56.75,-85.54 c -12.33,-18.57 -7.26,-43.62 11.31,-55.95 l 306.81,-203.57 c 18.58,-12.33 43.63,-7.26 55.95,11.31 l 56.76,85.54 -374.08,248.21"
         style="fill:#1d3e67;fill-opacity:1;fill-rule:nonzero;stroke:none"
         id="path442" /><path
         d="m 1161.88,3997.75 v 0 l 35.5,53.5 -35.5,-53.5"
         style="fill:#93b9c5;fill-opacity:1;fill-rule:nonzero;stroke:none"
         id="path444" /><path
         d="m 1364.8,3782.59 c -5.05,0 -10.16,1.43 -14.68,4.44 l -205.61,136.42 c -12.24,8.13 -15.58,24.64 -7.46,36.88 l 24.83,37.42 v 0 l -21.41,-32.27 c -8.12,-12.24 -4.78,-28.75 7.46,-36.87 l 205.61,-136.43 c 4.52,-3 9.63,-4.44 14.68,-4.44 8.55,0 16.93,4.12 22.07,11.71 l -3.3,-4.96 c -5.12,-7.72 -13.57,-11.9 -22.19,-11.9"
         style="fill:#1b3355;fill-opacity:1;fill-rule:nonzero;stroke:none"
         id="path446" /><path
         d="m 1200.8,4056.4 -60.33,-90.92 c -8.12,-12.24 -4.78,-28.75 7.46,-36.87 l 205.61,-136.43 c 12.24,-8.12 28.75,-4.78 36.87,7.46 l 60.33,90.92 -249.94,165.84"
         style="fill:#4196d8;fill-opacity:1;fill-rule:nonzero;stroke:none"
         id="path448" /><path
         d="m 1208.67,4014.24 c -2.18,1.44 -2.78,4.39 -1.33,6.56 1.44,2.18 4.38,2.77 6.56,1.33 2.18,-1.45 2.78,-4.38 1.33,-6.56 -1.45,-2.18 -4.39,-2.78 -6.56,-1.33 m 12.77,0 c 4.16,8.18 9.56,19.51 10.93,23.46 1.51,3.05 0.58,6.82 -2.33,8.75 -3.16,2.1 -7.42,1.24 -9.52,-1.93 -4.45,-4.41 -16.16,-16.74 -18.32,-20.31 -3.32,-5.01 -1.96,-11.78 3.06,-15.11 4.65,-3.08 10.76,-2.09 14.29,2.06 l 1.89,3.08"
         style="fill:#b6b8b7;fill-opacity:1;fill-rule:nonzero;stroke:none"
         id="path450" /><path
         d="m 1455.37,4185.46 -10.1,49.91 c -1.25,6.2 2.76,12.25 8.97,13.51 l 49.91,10.1 c 6.21,1.25 12.26,-2.77 13.51,-8.98 l 10.1,-49.9 c 1.25,-6.21 -2.76,-12.26 -8.97,-13.52 l -49.91,-10.09 c -6.2,-1.26 -12.25,2.76 -13.51,8.97"
         style="fill:#1d3e67;fill-opacity:1;fill-rule:nonzero;stroke:none"
         id="path452" /><path
         d="m 1452.44,4181.04 0.91,0.18 -11.58,57.26 -0.21,2.11 c 0,4.9 3.45,9.3 8.45,10.31 l 57.25,11.58 2.11,0.21 c 4.9,0 9.3,-3.45 10.31,-8.45 l 11.58,-57.26 0.21,-2.1 c 0,-4.9 -3.45,-9.31 -8.45,-10.32 l -57.25,-11.58 -2.11,-0.21 c -4.9,0 -9.31,3.46 -10.31,8.45 l -0.91,-0.18 -0.91,-0.18 c 1.19,-5.88 6.35,-9.94 12.13,-9.94 l 2.48,0.25 57.25,11.57 c 5.88,1.19 9.94,6.37 9.94,12.14 l -0.25,2.47 -11.58,57.26 c -1.19,5.87 -6.35,9.94 -12.13,9.94 l -2.47,-0.25 -57.26,-11.58 c -5.88,-1.19 -9.94,-6.36 -9.94,-12.13 l 0.25,-2.48 11.58,-57.25 0.91,0.18"
         style="fill:#1d3e67;fill-opacity:1;fill-rule:nonzero;stroke:none"
         id="path454" /><path
         d="m 1464.14,4205.48 -0.72,0.48 c -1.15,0.76 -1.46,2.32 -0.7,3.47 l 20.94,31.56 c 0.77,1.16 2.33,1.47 3.48,0.71 l 0.72,-0.47 c 1.15,-0.77 1.47,-2.32 0.7,-3.48 l -20.95,-31.57 c -0.76,-1.15 -2.32,-1.46 -3.47,-0.7"
         style="fill:#122135;fill-opacity:1;fill-rule:nonzero;stroke:none"
         id="path456" /><path
         d="m 1482.35,4193.4 -0.71,0.47 c -1.16,0.77 -1.47,2.33 -0.71,3.48 l 20.95,31.57 c 0.76,1.15 2.32,1.46 3.47,0.69 l 0.71,-0.47 c 1.16,-0.76 1.47,-2.32 0.71,-3.48 l -20.94,-31.56 c -0.77,-1.15 -2.32,-1.47 -3.48,-0.7"
         style="fill:#122135;fill-opacity:1;fill-rule:nonzero;stroke:none"
         id="path458" /><path
         d="m 1476.45,3929.3 c 8.12,12.24 4.78,28.75 -7.47,36.87 l -205.6,136.43 c -12.24,8.12 -28.75,4.78 -36.88,-7.46 l -25.7,-38.74 249.94,-165.84 25.71,38.74"
         style="fill:#1d3e67;fill-opacity:1;fill-rule:nonzero;stroke:none"
         id="path460" /><path
         d="m 1568.43,4329.57 c 74.42,-45.27 138.5,-171.42 58.42,-292.12 -74.75,-112.65 -103.93,-156.62 -103.93,-156.62 0,0 108.3,173.43 117.59,232.23 15.03,95.09 -5.78,162.12 -72.08,216.51"
         style="fill:#ffffff;fill-opacity:1;fill-rule:nonzero;stroke:none"
         id="path462" /><path
         d="m 1445.77,3883.06 -217.81,144.52 c 1.53,3.26 2.86,6.22 3.72,8.33 l 219.06,-145.35 -4.97,-7.5 m -232.33,154.15 -17.61,11.69 4.97,7.5 19,-12.6 c -1.65,-1.66 -3.95,-4.03 -6.36,-6.59"
         style="fill:#377dbf;fill-opacity:1;fill-rule:nonzero;stroke:none"
         id="path464" /><path
         d="m 1227.96,4027.58 -14.52,9.63 c 2.41,2.56 4.71,4.93 6.36,6.59 l 11.88,-7.89 c -0.86,-2.11 -2.19,-5.07 -3.72,-8.33"
         style="fill:#87979e;fill-opacity:1;fill-rule:nonzero;stroke:none"
         id="path466" /><path
         d="m 1345.07,3804.79 c -0.64,-0.96 -43.96,26.67 -96.77,61.71 -52.82,35.04 -95.12,64.23 -94.48,65.18 0.63,0.96 43.96,-26.67 96.77,-61.71 52.81,-35.05 95.11,-64.23 94.48,-65.18"
         style="fill:#48afe7;fill-opacity:1;fill-rule:nonzero;stroke:none"
         id="path468" /><path
         d="m 2591.45,341.23 c -3.92,-4 -7.27,-8.421 -10.03,-13.14 l -4.21,2.172 c -0.61,2.699 -3.17,4.547 -5.97,4.218 -3,-0.351 -5.14,-3.058 -4.78,-6.058 0.35,-2.992 3.06,-5.141 6.06,-4.793 l 1.66,0.48 4.08,-2.117 c -2.26,-5.023 -3.91,-10.312 -4.88,-15.793 l 6.76,-1.179 c 2.08,11.82 7.69,22.691 16.22,31.429 l -4.91,4.781"
         style="fill:#ffffff;fill-opacity:1;fill-rule:nonzero;stroke:none"
         id="path470" /><path
         d="m 2641.11,362.07 c -1.55,0 -3.08,-0.058 -4.61,-0.16 l -0.67,5.672 c 1.7,1.359 2.68,3.52 2.41,5.84 -0.42,3.547 -3.64,6.09 -7.2,5.68 -3.56,-0.422 -6.1,-3.641 -5.68,-7.204 0.27,-2.296 1.71,-4.179 3.65,-5.097 l 0.67,-5.653 c -6.46,-1.046 -12.7,-3.007 -18.64,-5.847 l 2.96,-6.192 c 8.45,4.039 17.57,6.102 27.11,6.102 4.5,0 8.99,-0.481 13.35,-1.43 l 1.46,6.711 c -4.85,1.039 -9.83,1.578 -14.81,1.578"
         style="fill:#ffffff;fill-opacity:1;fill-rule:nonzero;stroke:none"
         id="path472" /><path
         d="m 2700.87,339.012 c 2.99,0.367 5.12,3.097 4.76,6.09 -0.38,3 -3.1,5.117 -6.09,4.75 -2.8,-0.34 -4.84,-2.743 -4.79,-5.5 l -3.77,-3.293 c -3.78,3.89 -8.05,7.363 -12.75,10.312 l -3.65,-5.801 c 10.26,-6.468 18.29,-15.629 23.2,-26.48 l 6.25,2.832 c -2.27,5.008 -5.13,9.699 -8.53,13.988 l 3.64,3.172 1.73,-0.07"
         style="fill:#ffffff;fill-opacity:1;fill-rule:nonzero;stroke:none"
         id="path474" /><path
         d="m 2636.15,269.68 c -3.48,-0.219 -7.01,-0.309 -10.47,-0.309 -7.97,0 -15.68,0.539 -22.43,1.621 -3.53,0.547 -7.65,1.399 -11.49,2.637 9.47,-16.84 27.77,-28.277 48.77,-28.277 25.84,0 47.62,17.339 53.84,40.75 -6.17,-4.063 -13.63,-7.473 -22.25,-10.153 -10.67,-3.328 -23.12,-5.5 -35.97,-6.269"
         style="fill:#ffffff;fill-opacity:1;fill-rule:nonzero;stroke:none"
         id="path476" /><path
         d="m 2664.44,297.609 c -6.78,0 -12.31,5.512 -12.31,12.301 0,6.789 5.53,12.32 12.31,12.32 6.79,0 12.32,-5.531 12.32,-12.32 0,-6.789 -5.53,-12.301 -12.32,-12.301 z m -42.87,-8.23 c -9.24,0 -16.75,7.512 -16.75,16.742 0,9.231 7.51,16.75 16.75,16.75 9.23,0 16.74,-7.519 16.74,-16.75 0,-9.23 -7.51,-16.742 -16.74,-16.742 z m 19.54,58.973 c -30.34,0 -55.02,-24.133 -55.02,-53.793 0,-3.86 0.41,-7.688 1.24,-11.418 6.1,-4.371 24.49,-8.051 48.39,-6.621 26.07,1.582 47.94,8.671 60.39,19.539 -0.05,1.761 -0.18,3.531 -0.41,5.273 -3.43,26.797 -26.91,47.02 -54.59,47.02"
         style="fill:#ffffff;fill-opacity:1;fill-rule:nonzero;stroke:none"
         id="path478" /><path
         d="m 2785.95,331.449 c -2.67,1.051 -7.29,2.801 -12.51,2.141 -4.99,-0.61 -7.64,-3.07 -7.64,-9.11 v -7.832 h 20.17 v -15.546 h -20.17 v -49.36 h -17.48 v 49.36 h -12.13 v 15.546 h 12.13 v 8.043 c 0,15.2 8.11,25.18 23.24,25.18 5.81,0 10.47,-1.101 14.39,-2.789 v -15.633"
         style="fill:#ffffff;fill-opacity:1;fill-rule:nonzero;stroke:none"
         id="path480" /><path
         d="m 2828.51,301.289 c -1.6,0.27 -3.24,0.422 -4.76,0.422 -8.11,0 -13.67,-4.949 -13.67,-14.602 v -35.367 h -17.48 v 64.906 h 16.95 v -7.097 c 4.08,6.09 10.31,8.84 18.28,8.84 3.75,0 7.68,-1.149 9.9,-3.051 l -9.22,-14.051"
         style="fill:#ffffff;fill-opacity:1;fill-rule:nonzero;stroke:none"
         id="path482" /><path
         d="m 2851.61,290.32 h 28.74 c -1.61,8.309 -6.63,13 -14.13,13 -8.24,0 -13.07,-4.961 -14.61,-13 z m 46.29,-6.019 c 0,-2.012 -0.14,-4.43 -0.33,-5.903 h -46.03 c 1.88,-9.378 8.45,-13.468 16.68,-13.468 5.63,0 11.73,2.289 16.42,6.23 l 10.24,-11.25 c -7.36,-6.769 -16.75,-9.84 -27.66,-9.84 -19.9,0 -33.69,13.52 -33.69,33.95 0,20.429 13.39,34.371 32.82,34.371 18.69,0 31.48,-13.871 31.55,-34.09"
         style="fill:#ffffff;fill-opacity:1;fill-rule:nonzero;stroke:none"
         id="path484" /><path
         d="m 2920.88,290.32 h 28.74 c -1.61,8.309 -6.64,13 -14.14,13 -8.23,0 -13.06,-4.961 -14.6,-13 z m 46.29,-6.019 c 0,-2.012 -0.14,-4.43 -0.34,-5.903 h -46.02 c 1.88,-9.378 8.44,-13.468 16.68,-13.468 5.63,0 11.72,2.289 16.42,6.23 l 10.24,-11.25 c -7.37,-6.769 -16.75,-9.84 -27.67,-9.84 -19.89,0 -33.69,13.52 -33.69,33.95 0,20.429 13.4,34.371 32.83,34.371 18.69,0 31.48,-13.871 31.55,-34.09"
         style="fill:#ffffff;fill-opacity:1;fill-rule:nonzero;stroke:none"
         id="path486" /><path
         d="m 2991.32,284.23 c 0,-10.261 6.77,-17.89 16.68,-17.89 10.31,0 16.75,7.98 16.75,17.89 0,9.911 -6.44,17.879 -16.75,17.879 -9.91,0 -16.68,-7.64 -16.68,-17.879 z m 51.38,0 c 0,-19.488 -13.54,-34.16 -31.42,-34.16 -8.71,0 -14.87,3.41 -19.09,8.442 v -33.571 h -17.41 v 91.707 h 17.08 v -7.168 c 4.21,5.301 10.44,8.911 19.35,8.911 17.95,0 31.49,-14.672 31.49,-34.161"
         style="fill:#ffffff;fill-opacity:1;fill-rule:nonzero;stroke:none"
         id="path488" /><path
         d="m 3068.44,251.742 h -17.48 v 64.906 h 17.48 z m 2.34,86.137 c 0,-6.297 -4.88,-11.109 -11.18,-11.109 -6.3,0 -11.12,4.812 -11.12,11.109 0,6.301 4.82,11.262 11.12,11.262 6.3,0 11.18,-4.961 11.18,-11.262"
         style="fill:#ffffff;fill-opacity:1;fill-rule:nonzero;stroke:none"
         id="path490" /><path
         d="m 3097.62,293.539 24.44,23.109 h 21.44 l -31.48,-30.546 31.68,-34.36 h -21.5 L 3097.62,278 v -26.258 h -17.48 v 96.449 h 17.48 v -54.652"
         style="fill:#ffffff;fill-opacity:1;fill-rule:nonzero;stroke:none"
         id="path492" /><path
         d="m 1906.41,269.699 v 29.031 c -3.58,5.571 -11.27,10.329 -19.22,10.329 -12.86,0 -20.55,-10.598 -20.55,-24.778 0,-14.191 7.69,-24.66 20.55,-24.66 7.95,0 15.64,4.5 19.22,10.078 z m 0,-17.379 v 9.551 c -4.77,-6.492 -12.59,-11.141 -21.61,-11.141 -16.7,0 -28.5,12.739 -28.5,33.551 0,20.41 11.66,33.668 28.5,33.668 8.62,0 16.44,-4.25 21.61,-11.269 v 34.07 h 9.94 v -88.43 h -9.94"
         style="fill:#ffffff;fill-opacity:1;fill-rule:nonzero;stroke:none"
         id="path494" /><path
         d="m 1960.63,309.73 c -13.66,0 -20.42,-11.539 -20.95,-21.339 h 42.03 c -0.13,9.539 -6.5,21.339 -21.08,21.339 z m -31.42,-25.332 c 0,18.571 13.26,33.551 31.55,33.551 19.36,0 30.76,-15.117 30.76,-34.34 v -2.519 h -51.84 c 0.8,-12.059 9.28,-22.129 23.07,-22.129 7.29,0 14.72,2.91 19.75,8.078 l 4.78,-6.488 c -6.37,-6.371 -14.99,-9.821 -25.46,-9.821 -18.95,0 -32.61,13.661 -32.61,33.668"
         style="fill:#ffffff;fill-opacity:1;fill-rule:nonzero;stroke:none"
         id="path496" /><path
         d="m 1998.67,260.809 5.17,7.16 c 4.25,-4.899 12.33,-9.149 21.08,-9.149 9.81,0 15.11,4.649 15.11,11 0,15.512 -39.63,5.969 -39.63,29.7 0,9.941 8.61,18.429 23.86,18.429 10.87,0 18.56,-4.109 23.73,-9.277 l -4.64,-6.891 c -3.84,4.641 -10.87,8.078 -19.09,8.078 -8.75,0 -14.19,-4.367 -14.19,-10.07 0,-14.059 39.64,-4.777 39.64,-29.699 0,-10.731 -8.62,-19.36 -25.18,-19.36 -10.48,0 -19.36,3.192 -25.86,10.079"
         style="fill:#ffffff;fill-opacity:1;fill-rule:nonzero;stroke:none"
         id="path498" /><path
         d="m 2062.57,252.32 v 64.039 h 9.94 V 252.32 Z m -1.72,79.809 c 0,3.723 3.05,6.773 6.63,6.773 3.71,0 6.76,-3.05 6.76,-6.773 0,-3.707 -3.05,-6.617 -6.76,-6.617 -3.58,0 -6.63,2.91 -6.63,6.617"
         style="fill:#ffffff;fill-opacity:1;fill-rule:nonzero;stroke:none"
         id="path500" /><path
         d="m 2135.35,270.75 v 27.98 c -3.45,5.571 -11.14,10.329 -19.09,10.329 -12.86,0 -20.55,-10.2 -20.55,-24.379 0,-14.059 7.69,-24.399 20.55,-24.399 7.95,0 15.64,4.91 19.09,10.469 z m -46.4,-34.859 5.04,7.418 c 5.3,-6.36 11.66,-8.75 20.81,-8.75 10.61,0 20.55,5.171 20.55,19.23 v 9.141 c -4.64,-6.489 -12.46,-11.399 -21.48,-11.399 -16.7,0 -28.5,12.457 -28.5,33.149 0,20.539 11.67,33.269 28.5,33.269 8.62,0 16.31,-4.25 21.48,-11.269 v 9.679 h 9.94 V 254.18 c 0,-21.211 -14.85,-27.828 -30.49,-27.828 -10.87,0 -18.3,2.117 -25.85,9.539"
         style="fill:#ffffff;fill-opacity:1;fill-rule:nonzero;stroke:none"
         id="path502" /><path
         d="m 2205.08,252.32 v 41.899 c 0,11.273 -5.7,14.84 -14.32,14.84 -7.82,0 -15.25,-4.758 -18.95,-9.938 V 252.32 h -9.95 v 64.039 h 9.95 v -9.277 c 4.5,5.297 13.25,10.867 22.79,10.867 13.39,0 20.42,-6.758 20.42,-20.679 v -44.95 h -9.94"
         style="fill:#ffffff;fill-opacity:1;fill-rule:nonzero;stroke:none"
         id="path504" /><path
         d="m 2259.3,309.73 c -13.66,0 -20.42,-11.539 -20.95,-21.339 h 42.03 c -0.14,9.539 -6.5,21.339 -21.08,21.339 z m -31.42,-25.332 c 0,18.571 13.25,33.551 31.55,33.551 19.35,0 30.76,-15.117 30.76,-34.34 v -2.519 h -51.84 c 0.8,-12.059 9.28,-22.129 23.07,-22.129 7.29,0 14.71,2.91 19.75,8.078 l 4.78,-6.488 c -6.37,-6.371 -14.98,-9.821 -25.46,-9.821 -18.96,0 -32.61,13.661 -32.61,33.668"
         style="fill:#ffffff;fill-opacity:1;fill-rule:nonzero;stroke:none"
         id="path506" /><path
         d="m 2349.31,269.699 v 29.031 c -3.58,5.571 -11.27,10.329 -19.22,10.329 -12.86,0 -20.55,-10.598 -20.55,-24.778 0,-14.191 7.69,-24.66 20.55,-24.66 7.95,0 15.64,4.5 19.22,10.078 z m 0,-17.379 v 9.551 c -4.77,-6.492 -12.59,-11.141 -21.61,-11.141 -16.7,0 -28.5,12.739 -28.5,33.551 0,20.41 11.66,33.668 28.5,33.668 8.62,0 16.44,-4.25 21.61,-11.269 v 34.07 h 9.94 v -88.43 h -9.94"
         style="fill:#ffffff;fill-opacity:1;fill-rule:nonzero;stroke:none"
         id="path508" /><path
         d="m 2435.74,259.621 c 13,0 20.69,10.469 20.69,24.66 0,14.18 -7.69,24.778 -20.69,24.778 -7.82,0 -15.64,-4.758 -19.09,-10.329 v -29.031 c 3.45,-5.578 11.27,-10.078 19.09,-10.078 z m -29.03,-7.301 v 88.43 h 9.94 v -34.07 c 5.18,7.019 12.86,11.269 21.61,11.269 16.71,0 28.5,-13.258 28.5,-33.668 0,-20.812 -11.79,-33.551 -28.5,-33.551 -9.01,0 -16.83,4.649 -21.61,11.141 v -9.551 h -9.94"
         style="fill:#ffffff;fill-opacity:1;fill-rule:nonzero;stroke:none"
         id="path510" /><path
         d="m 2477.63,236.289 c 1.46,-0.668 3.85,-1.07 5.44,-1.07 4.37,0 7.29,1.461 9.54,6.761 l 4.25,9.68 -26.78,64.699 h 10.74 l 21.34,-52.5 21.21,52.5 h 10.87 l -32.08,-77.019 c -3.84,-9.281 -10.34,-12.871 -18.83,-12.988 -2.12,0 -5.43,0.39 -7.29,0.929 l 1.59,9.008"
         style="fill:#ffffff;fill-opacity:1;fill-rule:nonzero;stroke:none"
         id="path512" /></g></g></svg>
